<svg width="40" height="40" viewBox="0 0 40 40" fill="none" xmlns="http://www.w3.org/2000/svg">
<path d="M20.0003 1.49536C20.8596 1.49543 21.7044 1.71674 22.4531 2.13826C23.1081 2.50703 23.6698 3.01845 24.0986 3.63241L24.2744 3.90259L38.3972 27.4768L38.4102 27.4996C38.8468 28.2556 39.0783 29.1135 39.0807 29.9866C39.0831 30.8595 38.8555 31.7184 38.4232 32.4768C37.9909 33.2349 37.3671 33.8669 36.6149 34.3095C35.8626 34.752 35.0072 34.99 34.1345 34.9996H5.8646C4.99173 34.9899 4.13647 34.7522 3.38413 34.3095C2.63185 33.8668 2.00818 33.2351 1.57586 32.4768C1.1436 31.7184 0.917573 30.8595 0.91994 29.9866C0.922385 29.1135 1.15393 28.2556 1.59051 27.4996C1.59489 27.492 1.59904 27.4843 1.60353 27.4768L15.7246 3.90259C16.1703 3.16785 16.7987 2.55985 17.5475 2.13826C18.2962 1.71686 19.1412 1.49536 20.0003 1.49536ZM20.0003 4.82869C19.7139 4.82869 19.4313 4.90301 19.1817 5.04354C18.9324 5.18405 18.723 5.38642 18.5746 5.6311L4.47625 29.1663C4.33085 29.4181 4.25422 29.704 4.25327 29.9947C4.25246 30.2854 4.32755 30.5721 4.47137 30.8248C4.61549 31.0776 4.8244 31.2892 5.07521 31.4368C5.32593 31.5842 5.61122 31.6631 5.90204 31.6663H34.0986C34.3895 31.663 34.6747 31.5843 34.9255 31.4368C35.1762 31.2892 35.3836 31.0776 35.5277 30.8248C35.6717 30.5721 35.7482 30.2856 35.7474 29.9947C35.7465 29.704 35.6682 29.4181 35.5228 29.1663L21.4245 5.6311L21.3024 5.45532C21.1693 5.28855 21.0045 5.1489 20.8174 5.04354C20.5679 4.90307 20.2867 4.82876 20.0003 4.82869ZM20.0166 24.9996C20.937 24.9996 21.6831 25.7459 21.6833 26.6663C21.6833 27.5867 20.9371 28.3329 20.0166 28.3329H20.0003C19.0799 28.3329 18.3337 27.5867 18.3337 26.6663C18.3339 25.7459 19.08 24.9996 20.0003 24.9996H20.0166ZM18.3337 19.9996V13.3329C18.3339 12.4126 19.08 11.6663 20.0003 11.6663C20.9205 11.6665 21.6668 12.4127 21.667 13.3329V19.9996C21.667 20.9199 20.9206 21.6661 20.0003 21.6663C19.0799 21.6663 18.3337 20.9201 18.3337 19.9996Z" fill="#FFA938"/>
</svg>
