<svg width="36" height="36" viewBox="0 0 36 36" fill="none" xmlns="http://www.w3.org/2000/svg">
<path d="M18 1C27.3888 1 35 8.61116 35 18C35 27.3888 27.3888 35 18 35C8.61116 35 1 27.3888 1 18C1 8.61116 8.61116 1 18 1Z" fill="url(#paint0_linear_1414_1516)"/>
<path d="M18 1C27.3888 1 35 8.61116 35 18C35 27.3888 27.3888 35 18 35C8.61116 35 1 27.3888 1 18C1 8.61116 8.61116 1 18 1Z" fill="black" fill-opacity="0.2"/>
<path d="M18 1C27.3888 1 35 8.61116 35 18C35 27.3888 27.3888 35 18 35C8.61116 35 1 27.3888 1 18C1 8.61116 8.61116 1 18 1Z" stroke="white" stroke-width="2"/>
<path d="M25.8569 14.9933H25.1055V15.7397H25.8569V14.9933Z" fill="white"/>
<path d="M25.8569 12.7442H25.1055V13.4955H25.8569V12.7442Z" fill="white"/>
<path d="M25.8569 10.5H25.1055V11.2513H25.8569V10.5Z" fill="white"/>
<path d="M25.1055 17.2375H24.3591V17.9839H25.1055V17.2375Z" fill="white"/>
<path d="M25.1055 13.4955H24.3591V14.242H25.1055V13.4955Z" fill="white"/>
<path d="M25.1055 11.2513H24.3591V11.9978H25.1055V11.2513Z" fill="white"/>
<path d="M24.3591 17.9839H23.6127V18.7353H24.3591V17.9839Z" fill="white"/>
<path d="M24.3591 14.242H23.6127V14.9933H24.3591V14.242Z" fill="white"/>
<path d="M24.3591 11.9978H23.6127V12.7442H24.3591V11.9978Z" fill="white"/>
<path d="M23.6127 18.7353H22.8613V20.2281H23.6127V18.7353Z" fill="white"/>
<path d="M23.6127 15.7397H22.8613V16.4862H23.6127V15.7397Z" fill="white"/>
<path d="M23.6127 12.7442H22.8613V13.4955H23.6127V12.7442Z" fill="white"/>
<path d="M23.6127 10.5H22.8613V11.2513H23.6127V10.5Z" fill="white"/>
<path d="M22.8613 20.2281H22.1149V21.7259H22.8613V20.2281Z" fill="white"/>
<path d="M22.8613 16.4862H22.1149V17.2375H22.8613V16.4862Z" fill="white"/>
<path d="M22.8613 13.4955H22.1149V14.242H22.8613V13.4955Z" fill="white"/>
<path d="M22.8613 11.2513H22.1149V11.9978H22.8613V11.2513Z" fill="white"/>
<path d="M22.1149 21.7259H21.3636V23.2237H22.1149V21.7259Z" fill="white"/>
<path d="M22.1149 11.9978H21.3636V12.7442H22.1149V11.9978Z" fill="white"/>
<path d="M21.3636 17.9839H20.6171V18.7353H21.3636V17.9839Z" fill="white"/>
<path d="M21.3636 14.9933H20.6171V15.7397H21.3636V14.9933Z" fill="white"/>
<path d="M21.3636 10.5H20.6171V11.2513H21.3636V10.5Z" fill="white"/>
<path d="M21.3636 23.2237H19.8707V23.9701H21.3636V23.2237Z" fill="white"/>
<path d="M20.6171 12.7442H19.8707V13.4955H20.6171V12.7442Z" fill="white"/>
<path d="M20.6171 11.2513H19.8707V11.9978H20.6171V11.2513Z" fill="white"/>
<path d="M19.8707 23.9701H19.1194V24.7214H19.8707V23.9701Z" fill="white"/>
<path d="M19.8707 16.4862H19.1194V17.2375H19.8707V16.4862Z" fill="white"/>
<path d="M19.1194 14.242H18.3729V14.9933H19.1194V14.242Z" fill="white"/>
<path d="M19.1194 11.2513H18.3729V11.9978H19.1194V11.2513Z" fill="white"/>
<path d="M19.1194 24.7214H17.6265V25.4679H19.1194V24.7214Z" fill="white"/>
<path d="M18.3729 14.9933H17.6265V15.7397H18.3729V14.9933Z" fill="white"/>
<path d="M18.3729 11.9978H16.8752V12.7442H18.3729V11.9978Z" fill="white"/>
<path d="M17.6265 25.4679H14.631V26.2143H17.6265V25.4679Z" fill="white"/>
<path d="M16.8752 12.7442H16.1287V13.4955H16.8752V12.7442Z" fill="white"/>
<path d="M16.1287 13.4955H14.631V14.242H16.1287V13.4955Z" fill="white"/>
<path d="M17.6265 23.9701V23.2237H18.3729V22.4723H19.1194V21.7259H19.8707V18.7353H19.1194V17.9839H18.3729V17.2375H17.6265V16.4862H14.631V17.2375H13.8845V17.9839H13.1332V18.7353H12.3868V21.7259H13.1332V22.4723H13.8845V23.2237H14.631V23.9701H17.6265ZM16.1287 17.9839H17.6265V18.7353H18.3729V19.4817H19.1194V20.9795H18.3729V19.4817H17.6265V18.7353H16.1287V17.9839Z" fill="white"/>
<path d="M14.631 24.7214H12.3868V25.4679H14.631V24.7214Z" fill="white"/>
<path d="M14.631 14.242H13.1332V14.9933H14.631V14.242Z" fill="white"/>
<path d="M13.1332 14.9933H12.3868V15.7397H13.1332V14.9933Z" fill="white"/>
<path d="M12.3868 23.9701H11.6403V24.7214H12.3868V23.9701Z" fill="white"/>
<path d="M12.3868 15.7397H11.6403V16.4862H12.3868V15.7397Z" fill="white"/>
<path d="M11.6403 22.4723H10.889V23.9701H11.6403V22.4723Z" fill="white"/>
<path d="M11.6403 16.4862H10.889V17.9839H11.6403V16.4862Z" fill="white"/>
<path d="M10.889 17.9839H10.1426V22.4723H10.889V17.9839Z" fill="white"/>
<defs>
<linearGradient id="paint0_linear_1414_1516" x1="2" y1="18" x2="34" y2="18" gradientUnits="userSpaceOnUse">
<stop stop-color="#3AEE49"/>
<stop offset="1" stop-color="#24A8D4"/>
</linearGradient>
</defs>
</svg>
