<svg width="32" height="32" viewBox="0 0 32 32" fill="none" xmlns="http://www.w3.org/2000/svg">
<path d="M0 16C0 7.16344 7.16344 0 16 0C24.8366 0 32 7.16344 32 16C32 24.8366 24.8366 32 16 32C7.16344 32 0 24.8366 0 16Z" fill="#2E2F33"/>
<path d="M16 0.5C24.5604 0.5 31.5 7.43959 31.5 16C31.5 24.5604 24.5604 31.5 16 31.5C7.43959 31.5 0.5 24.5604 0.5 16C0.5 7.43959 7.43959 0.5 16 0.5Z" stroke="#C2C4C8" stroke-opacity="0.52"/>
<path d="M23.8569 12.9933H23.1055V13.7397H23.8569V12.9933Z" fill="#C2C4C8" fill-opacity="0.88"/>
<path d="M23.8569 10.7442H23.1055V11.4955H23.8569V10.7442Z" fill="#C2C4C8" fill-opacity="0.88"/>
<path d="M23.8569 8.5H23.1055V9.25134H23.8569V8.5Z" fill="#C2C4C8" fill-opacity="0.88"/>
<path d="M23.1055 15.2375H22.3591V15.9839H23.1055V15.2375Z" fill="#C2C4C8" fill-opacity="0.88"/>
<path d="M23.1055 11.4955H22.3591V12.242H23.1055V11.4955Z" fill="#C2C4C8" fill-opacity="0.88"/>
<path d="M23.1055 9.25134H22.3591V9.99777H23.1055V9.25134Z" fill="#C2C4C8" fill-opacity="0.88"/>
<path d="M22.3591 15.9839H21.6127V16.7353H22.3591V15.9839Z" fill="#C2C4C8" fill-opacity="0.88"/>
<path d="M22.3591 12.242H21.6127V12.9933H22.3591V12.242Z" fill="#C2C4C8" fill-opacity="0.88"/>
<path d="M22.3591 9.99777H21.6127V10.7442H22.3591V9.99777Z" fill="#C2C4C8" fill-opacity="0.88"/>
<path d="M21.6127 16.7353H20.8613V18.2281H21.6127V16.7353Z" fill="#C2C4C8" fill-opacity="0.88"/>
<path d="M21.6127 13.7397H20.8613V14.4862H21.6127V13.7397Z" fill="#C2C4C8" fill-opacity="0.88"/>
<path d="M21.6127 10.7442H20.8613V11.4955H21.6127V10.7442Z" fill="#C2C4C8" fill-opacity="0.88"/>
<path d="M21.6127 8.5H20.8613V9.25134H21.6127V8.5Z" fill="#C2C4C8" fill-opacity="0.88"/>
<path d="M20.8613 18.2281H20.1149V19.7259H20.8613V18.2281Z" fill="#C2C4C8" fill-opacity="0.88"/>
<path d="M20.8613 14.4862H20.1149V15.2375H20.8613V14.4862Z" fill="#C2C4C8" fill-opacity="0.88"/>
<path d="M20.8613 11.4955H20.1149V12.242H20.8613V11.4955Z" fill="#C2C4C8" fill-opacity="0.88"/>
<path d="M20.8613 9.25134H20.1149V9.99777H20.8613V9.25134Z" fill="#C2C4C8" fill-opacity="0.88"/>
<path d="M20.1149 19.7259H19.3636V21.2237H20.1149V19.7259Z" fill="#C2C4C8" fill-opacity="0.88"/>
<path d="M20.1149 9.99777H19.3636V10.7442H20.1149V9.99777Z" fill="#C2C4C8" fill-opacity="0.88"/>
<path d="M19.3636 15.9839H18.6171V16.7353H19.3636V15.9839Z" fill="#C2C4C8" fill-opacity="0.88"/>
<path d="M19.3636 12.9933H18.6171V13.7397H19.3636V12.9933Z" fill="#C2C4C8" fill-opacity="0.88"/>
<path d="M19.3636 8.5H18.6171V9.25134H19.3636V8.5Z" fill="#C2C4C8" fill-opacity="0.88"/>
<path d="M19.3636 21.2237H17.8707V21.9701H19.3636V21.2237Z" fill="#C2C4C8" fill-opacity="0.88"/>
<path d="M18.6171 10.7442H17.8707V11.4955H18.6171V10.7442Z" fill="#C2C4C8" fill-opacity="0.88"/>
<path d="M18.6171 9.25134H17.8707V9.99777H18.6171V9.25134Z" fill="#C2C4C8" fill-opacity="0.88"/>
<path d="M17.8707 21.9701H17.1194V22.7214H17.8707V21.9701Z" fill="#C2C4C8" fill-opacity="0.88"/>
<path d="M17.8707 14.4862H17.1194V15.2375H17.8707V14.4862Z" fill="#C2C4C8" fill-opacity="0.88"/>
<path d="M17.1194 12.242H16.3729V12.9933H17.1194V12.242Z" fill="#C2C4C8" fill-opacity="0.88"/>
<path d="M17.1194 9.25134H16.3729V9.99777H17.1194V9.25134Z" fill="#C2C4C8" fill-opacity="0.88"/>
<path d="M17.1194 22.7214H15.6265V23.4679H17.1194V22.7214Z" fill="#C2C4C8" fill-opacity="0.88"/>
<path d="M16.3729 12.9933H15.6265V13.7397H16.3729V12.9933Z" fill="#C2C4C8" fill-opacity="0.88"/>
<path d="M16.3729 9.99777H14.8752V10.7442H16.3729V9.99777Z" fill="#C2C4C8" fill-opacity="0.88"/>
<path d="M15.6265 23.4679H12.631V24.2143H15.6265V23.4679Z" fill="#C2C4C8" fill-opacity="0.88"/>
<path d="M14.8752 10.7442H14.1287V11.4955H14.8752V10.7442Z" fill="#C2C4C8" fill-opacity="0.88"/>
<path d="M14.1287 11.4955H12.631V12.242H14.1287V11.4955Z" fill="#C2C4C8" fill-opacity="0.88"/>
<path d="M15.6265 21.9701V21.2237H16.3729V20.4723H17.1194V19.7259H17.8707V16.7353H17.1194V15.9839H16.3729V15.2375H15.6265V14.4862H12.631V15.2375H11.8845V15.9839H11.1332V16.7353H10.3868V19.7259H11.1332V20.4723H11.8845V21.2237H12.631V21.9701H15.6265ZM14.1287 15.9839H15.6265V16.7353H16.3729V17.4817H17.1194V18.9795H16.3729V17.4817H15.6265V16.7353H14.1287V15.9839Z" fill="#C2C4C8" fill-opacity="0.88"/>
<path d="M12.631 22.7214H10.3868V23.4679H12.631V22.7214Z" fill="#C2C4C8" fill-opacity="0.88"/>
<path d="M12.631 12.242H11.1332V12.9933H12.631V12.242Z" fill="#C2C4C8" fill-opacity="0.88"/>
<path d="M11.1332 12.9933H10.3868V13.7397H11.1332V12.9933Z" fill="#C2C4C8" fill-opacity="0.88"/>
<path d="M10.3868 21.9701H9.64035V22.7214H10.3868V21.9701Z" fill="#C2C4C8" fill-opacity="0.88"/>
<path d="M10.3868 13.7397H9.64035V14.4862H10.3868V13.7397Z" fill="#C2C4C8" fill-opacity="0.88"/>
<path d="M9.64035 20.4723H8.88901V21.9701H9.64035V20.4723Z" fill="#C2C4C8" fill-opacity="0.88"/>
<path d="M9.64035 14.4862H8.88901V15.9839H9.64035V14.4862Z" fill="#C2C4C8" fill-opacity="0.88"/>
<path d="M8.88901 15.9839H8.14258V20.4723H8.88901V15.9839Z" fill="#C2C4C8" fill-opacity="0.88"/>
</svg>
