<svg width="450" height="94" viewBox="0 0 450 94" fill="none" xmlns="http://www.w3.org/2000/svg">
<path d="M20.3909 18.8356V27.2376H13.3522V30.0898H23.2431V32.1878H0.90884V30.0898H10.7707V27.2376H3.75138V18.8356H20.3909ZM3.38398 36.5677V34.5083H20.4972V42.3204H17.8867V36.5677H3.38398ZM6.2942 25.1588H17.8287V20.8854H6.2942V25.1588ZM46.8685 37.3025V39.4199H24.4473V37.3025H30.4611V31.8591H26.41V29.732H30.0647V22.1133H26.352V19.9959H44.8188V22.1133H41.0674V29.732H44.7415V31.8591H40.7097V37.3025H46.8685ZM32.6462 29.732H38.5149V22.1133H32.6462V29.732ZM33.0619 37.3025H38.1089V31.8591H33.0619V37.3025ZM67.8158 24.9945V27.0732H50.9346V18.7099H53.5064V24.9945H67.8158ZM47.947 32.2362V30.1575H70.3683V32.2362H47.947ZM50.7509 41.7403V34.5663H53.3324V39.6229H67.9705V41.7403H50.7509ZM84.7474 39.4805H94.974V37.7305H84.7474V39.4805ZM98.4193 17.6602V31.9883H94.9466V17.6602H98.4193ZM77.556 28.1055C82.2045 28.1055 88.2474 28.1055 93.5795 27.4492L93.7435 29.9102C91.8295 30.2383 89.8607 30.457 87.9193 30.5938V33.5195H84.7474V35.1055H94.974V33H98.4193V42.2422H81.3021V33H84.4466V30.7852C82.1361 30.8809 79.9349 30.8945 77.9662 30.8945L77.556 28.1055ZM87.7826 19.2734C87.7826 21.3789 89.5873 23.375 93.4427 24.1133L91.9662 26.7383C89.1224 26.1641 87.1263 24.8379 86.0326 23.0469C84.9525 25.002 82.9291 26.4785 79.9623 27.1211L78.431 24.4688C82.3685 23.6758 84.1732 21.543 84.2005 19.2734V18.2617H87.7826V19.2734ZM122.641 17.6328V42.5156H119.36V17.6328H122.641ZM117.337 18.1797V41.4219H114.083V29.9922H110.008C108.587 32.8359 106.276 35.2969 102.735 37.3477L100.766 34.8867C105.784 31.9062 107.999 28.2832 108.477 23.4023H102.133V20.5859H111.95C111.936 22.9512 111.69 25.1797 111.102 27.2305H114.083V18.1797H117.337ZM129.175 38.0856L126.98 45.6464H124.66L126.12 38.0856H129.175ZM146.156 21.5041C146.137 24.9171 148.361 27.982 152.073 29.1906L150.662 31.221C147.964 30.2445 145.982 28.3591 144.919 25.9033C143.855 28.7072 141.718 30.8923 138.75 31.9655L137.358 29.8771C141.274 28.5428 143.546 25.2845 143.565 21.6105V19.1837H146.156V21.5041ZM141.39 37.6506C141.37 34.6823 144.522 32.9613 149.666 32.9613C154.8 32.9613 157.942 34.6823 157.952 37.6506C157.942 40.6091 154.8 42.2818 149.666 42.2818C144.522 42.2818 141.37 40.6091 141.39 37.6506ZM143.961 37.6506C143.942 39.2845 146.079 40.232 149.666 40.232C153.243 40.232 155.37 39.2845 155.38 37.6506C155.37 35.9586 153.243 35.0014 149.666 35.0014C146.079 35.0014 143.942 35.9586 143.961 37.6506ZM150.12 24.9461V22.8094H155.283V17.8204H157.874V32.2845H155.283V24.9461H150.12ZM169.54 22.3453C169.54 25.4489 171.706 28.2914 175.428 29.4807L174.19 31.511C171.396 30.6119 169.366 28.7652 168.293 26.4351C167.229 29.1133 165.073 31.2403 162.124 32.2652L160.8 30.1961C164.619 28.9296 166.929 25.7583 166.949 22.3646V21.6878H161.554V19.5801H174.829V21.6878H169.54V22.3453ZM164.106 37.6796C164.106 34.7983 167.229 33.1257 172.324 33.1257C177.381 33.1257 180.465 34.7983 180.465 37.6796C180.465 40.5898 177.381 42.2818 172.324 42.2818C167.229 42.2818 164.106 40.5898 164.106 37.6796ZM166.707 37.6796C166.688 39.3135 168.786 40.232 172.324 40.232C175.853 40.232 177.922 39.3135 177.922 37.6796C177.922 36.0746 175.853 35.1754 172.324 35.1851C168.786 35.1754 166.688 36.0746 166.707 37.6796ZM177.642 32.5262V17.8204H180.243V23.8826H183.791V26.029H180.243V32.5262H177.642ZM206.866 30.6119V32.6906H184.531V30.6119H206.866ZM186.919 23.5442C186.919 20.4696 190.352 18.6229 195.679 18.6423C200.987 18.6229 204.419 20.4696 204.419 23.5442C204.419 26.6381 200.987 28.5041 195.679 28.5041C190.352 28.5041 186.919 26.6381 186.919 23.5442ZM187.345 41.8177V34.6823H189.955V39.6906H204.352V41.8177H187.345ZM189.617 23.5442C189.598 25.3522 191.928 26.3867 195.679 26.3867C199.43 26.3867 201.761 25.3522 201.761 23.5442C201.761 21.7845 199.43 20.721 195.679 20.721C191.928 20.721 189.598 21.7845 189.617 23.5442ZM233.981 17.6602V24.7695H237.152V27.6406H233.981V34.5586H230.481V17.6602H233.981ZM213.801 31.3594C215.619 31.3594 217.697 31.3594 219.844 31.3047V29.9102C217.137 29.5273 215.441 28.2148 215.469 26.3008C215.441 24.0039 217.875 22.582 221.566 22.582C225.231 22.582 227.637 24.0039 227.664 26.3008C227.637 28.2148 225.983 29.5137 223.316 29.8828V31.168C225.367 31.0859 227.404 30.9219 229.332 30.6758L229.578 33.082C224.328 34.0117 218.559 34.0664 214.156 34.0664L213.801 31.3594ZM233.981 35.5703V42.5156H230.481V38.25H216.973V35.5703H233.981ZM228.703 19.4648V22.0078H214.457V19.4648H219.844V17.4414H223.316V19.4648H228.703ZM221.566 24.9062C219.789 24.9062 218.777 25.3438 218.805 26.3008C218.777 27.2031 219.789 27.7227 221.566 27.7227C223.316 27.7227 224.301 27.2031 224.328 26.3008C224.301 25.3438 223.316 24.9062 221.566 24.9062ZM258.421 17.6328V30.2383H254.949V17.6328H258.421ZM258.449 31.3047V38.0586H245.214V39.5898H259.132V42.3516H241.796V35.4609H254.976V34.0117H241.742V31.3047H258.449ZM247.156 20.0938C247.128 23.1016 248.933 26 253.007 27.1758L251.312 29.8555C248.455 29.0215 246.486 27.2988 245.378 25.0977C244.23 27.5039 242.193 29.418 239.226 30.293L237.503 27.5586C241.66 26.3281 243.519 23.1836 243.519 20.0938V18.1797H247.156V20.0938ZM280.407 17.8204V27.75H284.333V29.9061H280.407V42.3204H277.836V17.8204H280.407ZM261.186 23.7762V21.6588H267.229V18.1395H269.82V21.6588H275.699V23.7762H261.186ZM262.443 31.2887C262.434 27.9434 265.005 25.5843 268.544 25.5843C272.044 25.5843 274.616 27.9434 274.626 31.2887C274.616 34.6436 272.044 36.9738 268.544 36.9834C265.005 36.9738 262.434 34.6436 262.443 31.2887ZM264.928 31.2887C264.909 33.4061 266.446 34.8273 268.544 34.8177C270.613 34.8273 272.131 33.4061 272.15 31.2887C272.131 29.1809 270.613 27.7307 268.544 27.7307C266.446 27.7307 264.909 29.1809 264.928 31.2887ZM305.918 17.8204V42.3204H303.453V17.8204H305.918ZM284.763 35.2431C289.965 32.1588 292.46 28.0304 292.895 23.0028H285.924V20.866H295.486C295.476 23.2638 295.138 25.5456 294.393 27.6727H298.29V18.4489H300.745V41.1312H298.29V29.7514H293.494C292.034 32.5843 289.704 35.0787 286.262 37.0898L284.763 35.2431ZM14.8203 69.5742C14.2734 67.7148 12.7695 66.5664 10.6094 66.5664C7.54688 66.5664 5.46875 68.918 5.46875 73.0742C5.46875 77.2578 7.49219 79.6367 10.6367 79.6367C13.4668 79.6367 15.1484 78.0371 15.2031 75.5352H10.9102V72.4453H19.168V74.9062C19.168 80.1016 15.6133 83.2734 10.6094 83.2734C5.05859 83.2734 1.28516 79.3906 1.28516 73.1289C1.28516 66.7031 5.30469 62.9297 10.5273 62.9297C14.9844 62.9297 18.4297 65.6641 18.9766 69.5742H14.8203ZM21.515 83V63.2031H29.2806C33.7923 63.2031 36.3626 65.7461 36.3626 69.6562C36.3626 72.3633 35.1185 74.332 32.8626 75.2891L37.0736 83H32.5345L28.7611 75.9727H25.6165V83H21.515ZM25.6165 72.6367H28.515C30.9486 72.6367 32.1244 71.625 32.1244 69.6562C32.1244 67.6602 30.9486 66.5664 28.515 66.5664H25.6165V72.6367ZM56.6745 73.1016C56.6745 79.5547 52.655 83.2734 47.4323 83.2734C42.155 83.2734 38.1628 79.5273 38.1628 73.1016C38.1628 66.6484 42.155 62.9297 47.4323 62.9297C52.655 62.9297 56.6745 66.6484 56.6745 73.1016ZM52.4909 73.1016C52.4909 68.8633 50.4948 66.5664 47.4323 66.5664C44.3698 66.5664 42.3464 68.8633 42.3464 73.1016C42.3464 77.3398 44.3698 79.6367 47.4323 79.6367C50.4948 79.6367 52.4909 77.3398 52.4909 73.1016ZM62.6856 83L57.0254 63.2031H61.5098L64.8457 77.0391H65.0098L68.6465 63.2031H72.502L76.1387 77.0664H76.3028L79.6387 63.2031H84.1231L78.4629 83H74.4434L70.6699 69.9297H70.5059L66.7051 83H62.6856ZM89.6693 63.2031V83H85.5677V63.2031H89.6693ZM91.5788 66.5938V63.2031H107.794V66.5938H101.723V83H97.6491V66.5938H91.5788ZM122.559 63.4406V64.9586C122.54 67.018 122.54 70.1796 121.853 74.5594L119.281 74.3564C119.91 70.4406 119.958 67.5787 119.968 65.5387H110.019V63.4406H122.559ZM108.675 77.9337C110.203 77.924 111.914 77.9047 113.693 77.866V70.4503H116.255V77.7887C118.856 77.6823 121.524 77.5083 123.971 77.2086L124.116 79.1519C119.011 79.9738 113.316 80.0801 108.965 80.0608L108.675 77.9337ZM125.382 85.3204V60.8204H127.983V70.9337H131.744V73.1478H127.983V85.3204H125.382ZM157.88 60.8204V67.1727H161.429V69.3771H157.88V75.5843H155.279V60.8204H157.88ZM138.659 65.3936V63.2956H144.673V60.6464H147.255V63.2956H153.239V65.3936H138.659ZM139.994 70.837C139.984 68.2168 142.382 66.4572 145.959 66.4572C149.488 66.4572 151.886 68.2168 151.895 70.837C151.886 73.4862 149.488 75.2169 145.959 75.2265C142.382 75.2169 139.984 73.4862 139.994 70.837ZM142.217 85.011V76.8702H157.88V85.011H142.217ZM142.498 70.837C142.478 72.3453 143.871 73.2541 145.959 73.2638C148.028 73.2541 149.42 72.3453 149.44 70.837C149.42 69.3674 148.028 68.4392 145.959 68.4392C143.871 68.4392 142.478 69.3674 142.498 70.837ZM144.77 82.9033H155.308V78.9392H144.77V82.9033ZM168.221 63.7307C168.211 69.203 167.525 74.8881 164.112 79.674L162.072 78.5428C164.944 74.7141 165.804 70.4599 165.968 65.8481H162.671V63.7307H168.221ZM167.583 80.0028C170.745 75.7293 171.334 70.5953 171.441 65.8481H168.985V63.7307H173.684C173.674 65.7997 173.626 68.0331 173.365 70.3052H176.236V61.4489H178.692V84.1312H176.236V72.4227H173.055C172.514 75.4682 171.489 78.4945 169.594 81.163L167.583 80.0028ZM180.868 85.3204V60.8204H183.362V85.3204H180.868ZM212.95 60.8204V85.3204H210.455V72.558H207.439V84.1119H204.973V61.2942H207.439V70.4116H210.455V60.8204H212.95ZM192.704 78.8619V63.576H202.218V78.8619H192.704ZM195.15 76.8025H199.781V65.6354H195.15V76.8025ZM222.363 61.6616C226.046 61.6713 228.763 63.9337 228.783 67.1533C228.763 70.3633 226.046 72.6064 222.363 72.6064C218.631 72.6064 215.914 70.3633 215.914 67.1533C215.914 63.9337 218.631 61.6713 222.363 61.6616ZM218.447 67.1533C218.428 69.1644 220.1 70.4986 222.363 70.4986C224.606 70.4986 226.269 69.1644 226.269 67.1533C226.269 65.1519 224.606 63.808 222.363 63.8177C220.1 63.808 218.428 65.1519 218.447 67.1533ZM219.626 76.4834V74.424H235.744V80.5829H222.227V82.9323H236.546V85.011H219.704V78.6492H233.162V76.4834H219.626ZM233.143 73.2928V60.8204H235.744V73.2928H233.143ZM253.836 64.5041C253.817 67.9171 256.04 70.982 259.753 72.1906L258.341 74.221C255.644 73.2445 253.662 71.3591 252.598 68.9033C251.535 71.7072 249.398 73.8923 246.43 74.9655L245.038 72.8771C248.953 71.5428 251.225 68.2845 251.245 64.6105V62.1837H253.836V64.5041ZM249.069 80.6506C249.05 77.6823 252.202 75.9613 257.346 75.9613C262.48 75.9613 265.622 77.6823 265.631 80.6506C265.622 83.6091 262.48 85.2818 257.346 85.2818C252.202 85.2818 249.05 83.6091 249.069 80.6506ZM251.641 80.6506C251.622 82.2845 253.759 83.232 257.346 83.232C260.923 83.232 263.05 82.2845 263.06 80.6506C263.05 78.9586 260.923 78.0014 257.346 78.0014C253.759 78.0014 251.622 78.9586 251.641 80.6506ZM257.8 67.9461V65.8094H262.963V60.8204H265.554V75.2845H262.963V67.9461H257.8ZM277.22 65.3453C277.22 68.4489 279.385 71.2914 283.108 72.4807L281.87 74.511C279.076 73.6119 277.046 71.7652 275.972 69.4351C274.909 72.1133 272.753 74.2403 269.804 75.2652L268.479 73.1961C272.298 71.9296 274.609 68.7583 274.628 65.3646V64.6878H269.233V62.5801H282.508V64.6878H277.22V65.3453ZM271.786 80.6796C271.786 77.7983 274.909 76.1257 280.004 76.1257C285.061 76.1257 288.145 77.7983 288.145 80.6796C288.145 83.5898 285.061 85.2818 280.004 85.2818C274.909 85.2818 271.786 83.5898 271.786 80.6796ZM274.387 80.6796C274.367 82.3135 276.465 83.232 280.004 83.232C283.533 83.232 285.602 82.3135 285.602 80.6796C285.602 79.0746 283.533 78.1754 280.004 78.1851C276.465 78.1754 274.367 79.0746 274.387 80.6796ZM285.322 75.5262V60.8204H287.923V66.8826H291.471V69.029H287.923V75.5262H285.322ZM311.297 60.8204V70.75H315.222V72.9061H311.297V85.3204H308.725V60.8204H311.297ZM292.076 66.7762V64.6588H298.118V61.1395H300.71V64.6588H306.588V66.7762H292.076ZM293.333 74.2887C293.323 70.9434 295.895 68.5843 299.433 68.5843C302.933 68.5843 305.505 70.9434 305.515 74.2887C305.505 77.6436 302.933 79.9738 299.433 79.9834C295.895 79.9738 293.323 77.6436 293.333 74.2887ZM295.817 74.2887C295.798 76.4061 297.335 77.8273 299.433 77.8177C301.502 77.8273 303.02 76.4061 303.04 74.2887C303.02 72.1809 301.502 70.7307 299.433 70.7307C297.335 70.7307 295.798 72.1809 295.817 74.2887ZM323.214 67.511C323.214 71.4365 324.848 75.6036 328.135 77.605L326.675 79.616C324.383 78.2334 322.836 75.7776 321.995 72.9448C321.096 76.0483 319.414 78.6975 317.035 80.1478L315.411 78.2141C318.882 76.145 320.7 71.8039 320.7 67.6271V63.0539H323.214V67.511ZM325.466 71.5912V69.4351H329.285V61.2942H331.731V84.1119H329.285V71.5912H325.466ZM334.323 85.3204V60.8204H336.817V85.3204H334.323ZM361.709 80.1188V82.2652H339.288V80.1188H344.654V73.7086C342.633 72.6064 341.405 70.8467 341.405 68.6519C341.405 64.7942 345.186 62.261 350.436 62.2417C355.705 62.261 359.495 64.7942 359.495 68.6519C359.495 70.8177 358.306 72.5483 356.333 73.6602V80.1188H361.709ZM343.929 68.6519C343.929 71.2721 346.597 72.9834 350.436 72.9834C354.255 72.9834 356.962 71.2721 356.962 68.6519C356.962 66.0028 354.255 64.3204 350.436 64.3398C346.597 64.3204 343.929 66.0028 343.929 68.6519ZM347.206 80.1188H353.713V74.6561C352.708 74.8881 351.606 75.0138 350.436 75.0138C349.275 75.0138 348.193 74.8881 347.206 74.6657V80.1188ZM365.611 83.1837C364.538 83.1837 363.648 82.3135 363.667 81.25C363.648 80.1865 364.538 79.3163 365.611 79.3163C366.655 79.3163 367.545 80.1865 367.545 81.25C367.545 82.3135 366.655 83.1837 365.611 83.1837Z" fill="#1B1C1E"/>
<circle cx="92" cy="2" r="2" fill="#1B1C1E"/>
<circle cx="108" cy="2" r="2" fill="#1B1C1E"/>
<circle cx="229" cy="2" r="2" fill="#1B1C1E"/>
<circle cx="245" cy="2" r="2" fill="#1B1C1E"/>
</svg>
