<svg width="86" height="32" viewBox="0 0 86 32" fill="none" xmlns="http://www.w3.org/2000/svg">
<rect x="7.42578" y="5.43945" width="13.376" height="4.224" rx="2" fill="white"/>
<rect x="7.42578" y="9.66406" width="12.672" height="4.224" rx="2" transform="rotate(90 7.42578 9.66406)" fill="white"/>
<rect x="7.42578" y="22.3359" width="9.152" height="4.224" rx="2" fill="white"/>
<rect x="11.6484" y="13.8887" width="9.152" height="4.224" rx="2" fill="white"/>
<rect x="20.8008" y="13.8887" width="8.448" height="4.224" rx="2" transform="rotate(90 20.8008 13.8887)" fill="white"/>
<path d="M32.088 14.304H33.936C34.384 14.304 34.768 14.472 35.088 14.808C35.424 15.128 35.592 15.52 35.592 15.984C35.592 16.432 35.424 16.824 35.088 17.16C34.768 17.48 34.384 17.64 33.936 17.64H32.088C31.176 17.64 30.392 17.968 29.736 18.624C29.096 19.264 28.776 20.04 28.776 20.952V24.72C28.776 25.184 28.608 25.576 28.272 25.896C27.952 26.232 27.568 26.4 27.12 26.4C26.656 26.4 26.256 26.232 25.92 25.896C25.6 25.576 25.44 25.184 25.44 24.72V20.952V15.984C25.44 15.52 25.6 15.128 25.92 14.808C26.256 14.472 26.656 14.304 27.12 14.304C27.792 14.304 28.296 14.632 28.632 15.288C29.672 14.632 30.824 14.304 32.088 14.304ZM45.2008 14.304C46.8808 14.304 48.3048 14.896 49.4728 16.08C50.6568 17.264 51.2488 18.688 51.2488 20.352C51.2488 22.016 50.6568 23.44 49.4728 24.624C48.3048 25.808 46.8808 26.4 45.2008 26.4H43.6408C41.9768 26.4 40.5528 25.808 39.3688 24.624C38.1848 23.44 37.5928 22.016 37.5928 20.352C37.5928 18.688 38.1848 17.264 39.3688 16.08C40.5528 14.896 41.9768 14.304 43.6408 14.304H45.2008ZM45.2008 23.064C45.9528 23.064 46.5928 22.8 47.1208 22.272C47.6488 21.744 47.9128 21.104 47.9128 20.352C47.9128 19.6 47.6488 18.96 47.1208 18.432C46.5928 17.904 45.9528 17.64 45.2008 17.64H43.6408C42.8888 17.64 42.2488 17.904 41.7208 18.432C41.1928 18.96 40.9288 19.6 40.9288 20.352C40.9288 21.104 41.1928 21.744 41.7208 22.272C42.2488 22.8 42.8888 23.064 43.6408 23.064H45.2008ZM68.478 14.376C69.422 14.776 69.79 15.472 69.582 16.464L66.822 25.224C66.582 25.912 66.102 26.304 65.382 26.4C65.334 26.4 65.278 26.4 65.214 26.4C64.606 26.4 64.118 26.104 63.75 25.512L61.182 20.712L58.614 25.512C58.23 26.104 57.734 26.4 57.126 26.4C57.078 26.4 57.03 26.4 56.982 26.4C56.262 26.304 55.782 25.912 55.542 25.224L52.782 16.464C52.574 15.472 52.942 14.776 53.886 14.376C54.878 14.168 55.574 14.536 55.974 15.48L57.534 20.448L59.694 16.416L59.718 16.392C59.718 16.392 59.718 16.384 59.718 16.368C59.75 16.336 59.774 16.304 59.79 16.272C59.806 16.256 59.814 16.24 59.814 16.224C59.846 16.192 59.87 16.16 59.886 16.128C59.902 16.112 59.918 16.096 59.934 16.08C59.95 16.048 59.974 16.024 60.006 16.008C60.022 15.992 60.038 15.976 60.054 15.96C60.07 15.944 60.094 15.92 60.126 15.888C60.142 15.872 60.166 15.856 60.198 15.84C60.214 15.824 60.23 15.808 60.246 15.792C60.278 15.776 60.318 15.76 60.366 15.744C60.366 15.728 60.374 15.72 60.39 15.72C60.438 15.704 60.478 15.688 60.51 15.672C60.622 15.624 60.734 15.584 60.846 15.552C60.894 15.552 60.934 15.544 60.966 15.528C60.982 15.528 60.998 15.528 61.014 15.528C61.046 15.528 61.078 15.528 61.11 15.528C61.142 15.528 61.166 15.528 61.182 15.528C61.198 15.528 61.222 15.528 61.254 15.528C61.286 15.528 61.318 15.528 61.35 15.528C61.366 15.528 61.382 15.528 61.398 15.528C61.43 15.544 61.462 15.552 61.494 15.552C61.51 15.552 61.526 15.552 61.542 15.552C61.59 15.568 61.63 15.584 61.662 15.6C61.71 15.616 61.758 15.632 61.806 15.648C61.806 15.648 61.814 15.648 61.83 15.648C61.878 15.664 61.926 15.688 61.974 15.72C62.022 15.752 62.07 15.776 62.118 15.792C62.118 15.808 62.126 15.824 62.142 15.84C62.174 15.856 62.206 15.88 62.238 15.912C62.254 15.912 62.27 15.92 62.286 15.936C62.318 15.968 62.342 15.992 62.358 16.008C62.374 16.024 62.398 16.048 62.43 16.08C62.446 16.096 62.462 16.112 62.478 16.128C62.494 16.16 62.51 16.192 62.526 16.224C62.542 16.24 62.558 16.256 62.574 16.272C62.59 16.304 62.614 16.336 62.646 16.368C62.646 16.384 62.646 16.392 62.646 16.392V16.416C62.646 16.416 62.654 16.416 62.67 16.416L64.83 20.448L66.39 15.48C66.79 14.536 67.486 14.168 68.478 14.376ZM73.6206 12.168C74.0686 12.168 74.4526 12.336 74.7726 12.672C75.1086 12.992 75.2766 13.384 75.2766 13.848V24.72C75.2766 25.184 75.1086 25.576 74.7726 25.896C74.4526 26.232 74.0686 26.4 73.6206 26.4C73.1566 26.4 72.7566 26.232 72.4206 25.896C72.1006 25.576 71.9406 25.184 71.9406 24.72V13.848C71.9406 13.384 72.1006 12.992 72.4206 12.672C72.7566 12.336 73.1566 12.168 73.6206 12.168ZM73.6206 7.992C74.0846 7.992 74.4766 8.16 74.7966 8.496C75.1326 8.832 75.3006 9.232 75.3006 9.696C75.3006 10.16 75.1326 10.56 74.7966 10.896C74.4766 11.232 74.0846 11.4 73.6206 11.4C73.1406 11.4 72.7326 11.232 72.3966 10.896C72.0766 10.56 71.9166 10.16 71.9166 9.696C71.9166 9.232 72.0766 8.832 72.3966 8.496C72.7326 8.16 73.1406 7.992 73.6206 7.992ZM80.4549 10.68C80.9029 10.68 81.2869 10.848 81.6069 11.184C81.9429 11.504 82.1109 11.896 82.1109 12.36V14.304H82.6869C83.1509 14.304 83.5429 14.472 83.8629 14.808C84.1829 15.128 84.3429 15.52 84.3429 15.984C84.3429 16.432 84.1829 16.824 83.8629 17.16C83.5429 17.48 83.1509 17.64 82.6869 17.64H82.1109V21.528C82.1109 21.944 82.2629 22.304 82.5669 22.608C82.8709 22.912 83.2309 23.064 83.6469 23.064C84.1109 23.064 84.5029 23.232 84.8229 23.568C85.1589 23.888 85.3269 24.272 85.3269 24.72C85.3269 25.184 85.1589 25.576 84.8229 25.896C84.5029 26.232 84.1109 26.4 83.6469 26.4C82.3029 26.4 81.1509 25.92 80.1909 24.96C79.2469 24.016 78.7749 22.872 78.7749 21.528V12.36C78.7749 11.896 78.9349 11.504 79.2549 11.184C79.5909 10.848 79.9909 10.68 80.4549 10.68Z" fill="white"/>
</svg>
