<svg width="64" height="64" viewBox="0 0 64 64" fill="none" xmlns="http://www.w3.org/2000/svg">
<path d="M45.9998 25H44.603V36.1995H45.9998V25Z" fill="white"/>
<path d="M44.6018 36.1973H43.2051V37.5938H44.6018V36.1973Z" fill="white"/>
<path d="M44.6018 23.6055H43.2051V25.002H44.6018V23.6055Z" fill="white"/>
<path d="M43.2052 37.5918H41.7993V38.9975H43.2052V37.5918Z" fill="white"/>
<path d="M43.2052 22.1973H41.7993V23.603H43.2052V22.1973Z" fill="white"/>
<path d="M41.7991 39H40.4023V40.3965H41.7991V39Z" fill="white"/>
<path d="M41.7991 20.8027H40.4023V22.1992H41.7991V20.8027Z" fill="white"/>
<path d="M40.4037 40.3945H38.9978V41.791H40.4037V40.3945Z" fill="white"/>
<path d="M40.4025 29.207H37.5999V32.0092H40.4025V29.207Z" fill="white"/>
<path d="M40.4025 19.3945H37.5999V20.8002H40.4025V19.3945Z" fill="white"/>
<path d="M38.9971 41.8008H36.2036V43.2065H38.9971V41.8008Z" fill="white"/>
<path d="M36.2038 43.1973H33.4011V44.5938H36.2038V43.1973Z" fill="white"/>
<path d="M23.5964 44.5938V43.1973H22.1997V44.5938H20.803V45.9994H33.4011V44.5938H23.5964Z" fill="white"/>
<path d="M33.401 29.207H30.5984V32.0092H33.401V29.207Z" fill="white"/>
<path d="M37.6003 18H27.7957V19.3965H37.6003V18Z" fill="white"/>
<path d="M27.7961 19.3945H25.0027V20.8002H27.7961V19.3945Z" fill="white"/>
<path d="M25.0021 41.791H26.3988V40.3945H23.5962V43.1967H25.0021V41.791Z" fill="white"/>
<path d="M26.3988 29.207H23.5962V32.0092H26.3988V29.207Z" fill="white"/>
<path d="M25.0019 20.8027H22.1992V22.1992H25.0019V20.8027Z" fill="white"/>
<path d="M23.5959 39H22.1992V40.3965H23.5959V39Z" fill="white"/>
<path d="M22.1997 37.5918H20.803V38.9975H22.1997V37.5918Z" fill="white"/>
<path d="M22.1997 22.1973H20.803V23.603H22.1997V22.1973Z" fill="white"/>
<path d="M20.8024 36.1973H19.3965V37.5938H20.8024V36.1973Z" fill="white"/>
<path d="M20.8024 23.6055H19.3965V25.002H20.8024V23.6055Z" fill="white"/>
<path d="M19.397 25H18.0002V36.1995H19.397V25Z" fill="white"/>
</svg>
