<svg width="20" height="20" viewBox="0 0 20 20" fill="none" xmlns="http://www.w3.org/2000/svg">
<path d="M17.8569 6.9933H17.1055V7.73973H17.8569V6.9933Z" fill="#C2C4C8" fill-opacity="0.88"/>
<path d="M17.8569 4.7442H17.1055V5.49554H17.8569V4.7442Z" fill="#C2C4C8" fill-opacity="0.88"/>
<path d="M17.8569 2.5H17.1055V3.25134H17.8569V2.5Z" fill="#C2C4C8" fill-opacity="0.88"/>
<path d="M17.1055 9.2375H16.3591V9.98393H17.1055V9.2375Z" fill="#C2C4C8" fill-opacity="0.88"/>
<path d="M17.1055 5.49554H16.3591V6.24196H17.1055V5.49554Z" fill="#C2C4C8" fill-opacity="0.88"/>
<path d="M17.1055 3.25134H16.3591V3.99777H17.1055V3.25134Z" fill="#C2C4C8" fill-opacity="0.88"/>
<path d="M16.3591 9.98393H15.6127V10.7353H16.3591V9.98393Z" fill="#C2C4C8" fill-opacity="0.88"/>
<path d="M16.3591 6.24196H15.6127V6.9933H16.3591V6.24196Z" fill="#C2C4C8" fill-opacity="0.88"/>
<path d="M16.3591 3.99777H15.6127V4.7442H16.3591V3.99777Z" fill="#C2C4C8" fill-opacity="0.88"/>
<path d="M15.6127 10.7353H14.8613V12.2281H15.6127V10.7353Z" fill="#C2C4C8" fill-opacity="0.88"/>
<path d="M15.6127 7.73973H14.8613V8.48616H15.6127V7.73973Z" fill="#C2C4C8" fill-opacity="0.88"/>
<path d="M15.6127 4.7442H14.8613V5.49554H15.6127V4.7442Z" fill="#C2C4C8" fill-opacity="0.88"/>
<path d="M15.6127 2.5H14.8613V3.25134H15.6127V2.5Z" fill="#C2C4C8" fill-opacity="0.88"/>
<path d="M14.8613 12.2281H14.1149V13.7259H14.8613V12.2281Z" fill="#C2C4C8" fill-opacity="0.88"/>
<path d="M14.8613 8.48616H14.1149V9.2375H14.8613V8.48616Z" fill="#C2C4C8" fill-opacity="0.88"/>
<path d="M14.8613 5.49554H14.1149V6.24196H14.8613V5.49554Z" fill="#C2C4C8" fill-opacity="0.88"/>
<path d="M14.8613 3.25134H14.1149V3.99777H14.8613V3.25134Z" fill="#C2C4C8" fill-opacity="0.88"/>
<path d="M14.1149 13.7259H13.3636V15.2237H14.1149V13.7259Z" fill="#C2C4C8" fill-opacity="0.88"/>
<path d="M14.1149 3.99777H13.3636V4.7442H14.1149V3.99777Z" fill="#C2C4C8" fill-opacity="0.88"/>
<path d="M13.3636 9.98393H12.6171V10.7353H13.3636V9.98393Z" fill="#C2C4C8" fill-opacity="0.88"/>
<path d="M13.3636 6.9933H12.6171V7.73973H13.3636V6.9933Z" fill="#C2C4C8" fill-opacity="0.88"/>
<path d="M13.3636 2.5H12.6171V3.25134H13.3636V2.5Z" fill="#C2C4C8" fill-opacity="0.88"/>
<path d="M13.3636 15.2237H11.8707V15.9701H13.3636V15.2237Z" fill="#C2C4C8" fill-opacity="0.88"/>
<path d="M12.6171 4.7442H11.8707V5.49554H12.6171V4.7442Z" fill="#C2C4C8" fill-opacity="0.88"/>
<path d="M12.6171 3.25134H11.8707V3.99777H12.6171V3.25134Z" fill="#C2C4C8" fill-opacity="0.88"/>
<path d="M11.8707 15.9701H11.1194V16.7214H11.8707V15.9701Z" fill="#C2C4C8" fill-opacity="0.88"/>
<path d="M11.8707 8.48616H11.1194V9.2375H11.8707V8.48616Z" fill="#C2C4C8" fill-opacity="0.88"/>
<path d="M11.1194 6.24196H10.3729V6.9933H11.1194V6.24196Z" fill="#C2C4C8" fill-opacity="0.88"/>
<path d="M11.1194 3.25134H10.3729V3.99777H11.1194V3.25134Z" fill="#C2C4C8" fill-opacity="0.88"/>
<path d="M11.1194 16.7214H9.62651V17.4679H11.1194V16.7214Z" fill="#C2C4C8" fill-opacity="0.88"/>
<path d="M10.3729 6.9933H9.62651V7.73973H10.3729V6.9933Z" fill="#C2C4C8" fill-opacity="0.88"/>
<path d="M10.3729 3.99777H8.87517V4.7442H10.3729V3.99777Z" fill="#C2C4C8" fill-opacity="0.88"/>
<path d="M9.62651 17.4679H6.63097V18.2143H9.62651V17.4679Z" fill="#C2C4C8" fill-opacity="0.88"/>
<path d="M8.87517 4.7442H8.12874V5.49554H8.87517V4.7442Z" fill="#C2C4C8" fill-opacity="0.88"/>
<path d="M8.12874 5.49554H6.63097V6.24196H8.12874V5.49554Z" fill="#C2C4C8" fill-opacity="0.88"/>
<path d="M9.62651 15.9701V15.2237H10.3729V14.4723H11.1194V13.7259H11.8707V10.7353H11.1194V9.98393H10.3729V9.2375H9.62651V8.48616H6.63097V9.2375H5.88454V9.98393H5.1332V10.7353H4.38677V13.7259H5.1332V14.4723H5.88454V15.2237H6.63097V15.9701H9.62651ZM8.12874 9.98393H9.62651V10.7353H10.3729V11.4817H11.1194V12.9795H10.3729V11.4817H9.62651V10.7353H8.12874V9.98393Z" fill="#C2C4C8" fill-opacity="0.88"/>
<path d="M6.63097 16.7214H4.38677V17.4679H6.63097V16.7214Z" fill="#C2C4C8" fill-opacity="0.88"/>
<path d="M6.63097 6.24196H5.1332V6.9933H6.63097V6.24196Z" fill="#C2C4C8" fill-opacity="0.88"/>
<path d="M5.1332 6.9933H4.38677V7.73973H5.1332V6.9933Z" fill="#C2C4C8" fill-opacity="0.88"/>
<path d="M4.38677 15.9701H3.64035V16.7214H4.38677V15.9701Z" fill="#C2C4C8" fill-opacity="0.88"/>
<path d="M4.38677 7.73973H3.64035V8.48616H4.38677V7.73973Z" fill="#C2C4C8" fill-opacity="0.88"/>
<path d="M3.64035 14.4723H2.88901V15.9701H3.64035V14.4723Z" fill="#C2C4C8" fill-opacity="0.88"/>
<path d="M3.64035 8.48616H2.88901V9.98393H3.64035V8.48616Z" fill="#C2C4C8" fill-opacity="0.88"/>
<path d="M2.88901 9.98393H2.14258V14.4723H2.88901V9.98393Z" fill="#C2C4C8" fill-opacity="0.88"/>
</svg>
