<svg width="25" height="24" viewBox="0 0 25 24" fill="none" xmlns="http://www.w3.org/2000/svg">
<path d="M0.333374 17.1429C0.333374 7.67512 8.00849 0 17.4762 0H24.3334V6.85714C24.3334 16.3249 16.6583 24 7.19052 24C3.40342 24 0.333374 20.93 0.333374 17.1429Z" fill="#0A0E0E"/>
<g clip-path="url(#clip0_1242_17760)">
<g clip-path="url(#clip1_1242_17760)">
<path d="M24.3334 6.8625H23.1859V8.0025H24.3334V6.8625Z" fill="url(#paint0_linear_1242_17760)"/>
<path d="M24.3334 3.4275H23.1859V4.575H24.3334V3.4275Z" fill="url(#paint1_linear_1242_17760)"/>
<path d="M24.3334 0H23.1859V1.1475H24.3334V0Z" fill="url(#paint2_linear_1242_17760)"/>
<path d="M23.1859 10.29H22.0459V11.43H23.1859V10.29Z" fill="url(#paint3_linear_1242_17760)"/>
<path d="M23.1859 4.575H22.0459V5.715H23.1859V4.575Z" fill="url(#paint4_linear_1242_17760)"/>
<path d="M23.1859 1.1475H22.0459V2.2875H23.1859V1.1475Z" fill="url(#paint5_linear_1242_17760)"/>
<path d="M22.0459 11.43H20.9059V12.5775H22.0459V11.43Z" fill="url(#paint6_linear_1242_17760)"/>
<path d="M22.0459 5.715H20.9059V6.8625H22.0459V5.715Z" fill="url(#paint7_linear_1242_17760)"/>
<path d="M22.0459 2.2875H20.9059V3.4275H22.0459V2.2875Z" fill="url(#paint8_linear_1242_17760)"/>
<path d="M20.9059 12.5775H19.7584V14.8575H20.9059V12.5775Z" fill="url(#paint9_linear_1242_17760)"/>
<path d="M20.9059 8.0025H19.7584V9.1425H20.9059V8.0025Z" fill="url(#paint10_linear_1242_17760)"/>
<path d="M20.9059 3.4275H19.7584V4.575H20.9059V3.4275Z" fill="url(#paint11_linear_1242_17760)"/>
<path d="M20.9059 0H19.7584V1.1475H20.9059V0Z" fill="url(#paint12_linear_1242_17760)"/>
<path d="M19.7584 14.8575H18.6184V17.145H19.7584V14.8575Z" fill="url(#paint13_linear_1242_17760)"/>
<path d="M19.7584 9.1425H18.6184V10.29H19.7584V9.1425Z" fill="url(#paint14_linear_1242_17760)"/>
<path d="M19.7584 4.575H18.6184V5.715H19.7584V4.575Z" fill="url(#paint15_linear_1242_17760)"/>
<path d="M19.7584 1.1475H18.6184V2.2875H19.7584V1.1475Z" fill="url(#paint16_linear_1242_17760)"/>
<path d="M18.6184 17.145H17.4709V19.4325H18.6184V17.145Z" fill="url(#paint17_linear_1242_17760)"/>
<path d="M18.6184 2.2875H17.4709V3.4275H18.6184V2.2875Z" fill="url(#paint18_linear_1242_17760)"/>
<path d="M17.4709 11.43H16.3309V12.5775H17.4709V11.43Z" fill="url(#paint19_linear_1242_17760)"/>
<path d="M17.4709 6.8625H16.3309V8.0025H17.4709V6.8625Z" fill="url(#paint20_linear_1242_17760)"/>
<path d="M17.4709 0H16.3309V1.1475H17.4709V0Z" fill="url(#paint21_linear_1242_17760)"/>
<path d="M17.4709 19.4325H15.1909V20.5725H17.4709V19.4325Z" fill="url(#paint22_linear_1242_17760)"/>
<path d="M16.3309 3.4275H15.1909V4.575H16.3309V3.4275Z" fill="url(#paint23_linear_1242_17760)"/>
<path d="M16.3309 1.1475H15.1909V2.2875H16.3309V1.1475Z" fill="url(#paint24_linear_1242_17760)"/>
<path d="M15.1909 20.5725H14.0434V21.72H15.1909V20.5725Z" fill="url(#paint25_linear_1242_17760)"/>
<path d="M15.1909 9.1425H14.0434V10.29H15.1909V9.1425Z" fill="url(#paint26_linear_1242_17760)"/>
<path d="M14.0434 5.715H12.9034V6.8625H14.0434V5.715Z" fill="url(#paint27_linear_1242_17760)"/>
<path d="M14.0434 1.1475H12.9034V2.2875H14.0434V1.1475Z" fill="url(#paint28_linear_1242_17760)"/>
<path d="M14.0434 21.72H11.7634V22.86H14.0434V21.72Z" fill="url(#paint29_linear_1242_17760)"/>
<path d="M12.9034 6.8625H11.7634V8.0025H12.9034V6.8625Z" fill="url(#paint30_linear_1242_17760)"/>
<path d="M12.9034 2.2875H10.6159V3.4275H12.9034V2.2875Z" fill="url(#paint31_linear_1242_17760)"/>
<path d="M11.7634 22.86H7.18837V24H11.7634V22.86Z" fill="url(#paint32_linear_1242_17760)"/>
<path d="M10.6159 3.4275H9.47587V4.575H10.6159V3.4275Z" fill="url(#paint33_linear_1242_17760)"/>
<path d="M9.47587 4.575H7.18837V5.715H9.47587V4.575Z" fill="url(#paint34_linear_1242_17760)"/>
<path d="M11.7634 20.5725V19.4325H12.9034V18.285H14.0434V17.145H15.1909V12.5775H14.0434V11.43H12.9034V10.29H11.7634V9.1425H7.18837V10.29H6.04837V11.43H4.90087V12.5775H3.76087V17.145H4.90087V18.285H6.04837V19.4325H7.18837V20.5725H11.7634ZM9.47587 11.43H11.7634V12.5775H12.9034V13.7175H14.0434V16.005H12.9034V13.7175H11.7634V12.5775H9.47587V11.43Z" fill="url(#paint35_linear_1242_17760)"/>
<path d="M7.18837 21.72H3.76087V22.86H7.18837V21.72Z" fill="url(#paint36_linear_1242_17760)"/>
<path d="M7.18837 5.715H4.90087V6.8625H7.18837V5.715Z" fill="url(#paint37_linear_1242_17760)"/>
<path d="M4.90087 6.8625H3.76087V8.0025H4.90087V6.8625Z" fill="url(#paint38_linear_1242_17760)"/>
<path d="M3.76087 20.5725H2.62087V21.72H3.76087V20.5725Z" fill="url(#paint39_linear_1242_17760)"/>
<path d="M3.76087 8.0025H2.62087V9.1425H3.76087V8.0025Z" fill="url(#paint40_linear_1242_17760)"/>
<path d="M2.62087 18.285H1.47337V20.5725H2.62087V18.285Z" fill="url(#paint41_linear_1242_17760)"/>
<path d="M2.62087 9.1425H1.47337V11.43H2.62087V9.1425Z" fill="url(#paint42_linear_1242_17760)"/>
<path d="M1.47337 11.43H0.333374V18.285H1.47337V11.43Z" fill="url(#paint43_linear_1242_17760)"/>
</g>
</g>
<defs>
<linearGradient id="paint0_linear_1242_17760" x1="0.333374" y1="12" x2="24.3334" y2="12" gradientUnits="userSpaceOnUse">
<stop stop-color="#3AEE49"/>
<stop offset="1" stop-color="#24A8D4"/>
</linearGradient>
<linearGradient id="paint1_linear_1242_17760" x1="0.333374" y1="12" x2="24.3334" y2="12" gradientUnits="userSpaceOnUse">
<stop stop-color="#3AEE49"/>
<stop offset="1" stop-color="#24A8D4"/>
</linearGradient>
<linearGradient id="paint2_linear_1242_17760" x1="0.333374" y1="12" x2="24.3334" y2="12" gradientUnits="userSpaceOnUse">
<stop stop-color="#3AEE49"/>
<stop offset="1" stop-color="#24A8D4"/>
</linearGradient>
<linearGradient id="paint3_linear_1242_17760" x1="0.333374" y1="12" x2="24.3334" y2="12" gradientUnits="userSpaceOnUse">
<stop stop-color="#3AEE49"/>
<stop offset="1" stop-color="#24A8D4"/>
</linearGradient>
<linearGradient id="paint4_linear_1242_17760" x1="0.333374" y1="12" x2="24.3334" y2="12" gradientUnits="userSpaceOnUse">
<stop stop-color="#3AEE49"/>
<stop offset="1" stop-color="#24A8D4"/>
</linearGradient>
<linearGradient id="paint5_linear_1242_17760" x1="0.333374" y1="12" x2="24.3334" y2="12" gradientUnits="userSpaceOnUse">
<stop stop-color="#3AEE49"/>
<stop offset="1" stop-color="#24A8D4"/>
</linearGradient>
<linearGradient id="paint6_linear_1242_17760" x1="0.333374" y1="12" x2="24.3334" y2="12" gradientUnits="userSpaceOnUse">
<stop stop-color="#3AEE49"/>
<stop offset="1" stop-color="#24A8D4"/>
</linearGradient>
<linearGradient id="paint7_linear_1242_17760" x1="0.333374" y1="12" x2="24.3334" y2="12" gradientUnits="userSpaceOnUse">
<stop stop-color="#3AEE49"/>
<stop offset="1" stop-color="#24A8D4"/>
</linearGradient>
<linearGradient id="paint8_linear_1242_17760" x1="0.333374" y1="12" x2="24.3334" y2="12" gradientUnits="userSpaceOnUse">
<stop stop-color="#3AEE49"/>
<stop offset="1" stop-color="#24A8D4"/>
</linearGradient>
<linearGradient id="paint9_linear_1242_17760" x1="0.333374" y1="12" x2="24.3334" y2="12" gradientUnits="userSpaceOnUse">
<stop stop-color="#3AEE49"/>
<stop offset="1" stop-color="#24A8D4"/>
</linearGradient>
<linearGradient id="paint10_linear_1242_17760" x1="0.333374" y1="12" x2="24.3334" y2="12" gradientUnits="userSpaceOnUse">
<stop stop-color="#3AEE49"/>
<stop offset="1" stop-color="#24A8D4"/>
</linearGradient>
<linearGradient id="paint11_linear_1242_17760" x1="0.333374" y1="12" x2="24.3334" y2="12" gradientUnits="userSpaceOnUse">
<stop stop-color="#3AEE49"/>
<stop offset="1" stop-color="#24A8D4"/>
</linearGradient>
<linearGradient id="paint12_linear_1242_17760" x1="0.333374" y1="12" x2="24.3334" y2="12" gradientUnits="userSpaceOnUse">
<stop stop-color="#3AEE49"/>
<stop offset="1" stop-color="#24A8D4"/>
</linearGradient>
<linearGradient id="paint13_linear_1242_17760" x1="0.333374" y1="12" x2="24.3334" y2="12" gradientUnits="userSpaceOnUse">
<stop stop-color="#3AEE49"/>
<stop offset="1" stop-color="#24A8D4"/>
</linearGradient>
<linearGradient id="paint14_linear_1242_17760" x1="0.333374" y1="12" x2="24.3334" y2="12" gradientUnits="userSpaceOnUse">
<stop stop-color="#3AEE49"/>
<stop offset="1" stop-color="#24A8D4"/>
</linearGradient>
<linearGradient id="paint15_linear_1242_17760" x1="0.333374" y1="12" x2="24.3334" y2="12" gradientUnits="userSpaceOnUse">
<stop stop-color="#3AEE49"/>
<stop offset="1" stop-color="#24A8D4"/>
</linearGradient>
<linearGradient id="paint16_linear_1242_17760" x1="0.333374" y1="12" x2="24.3334" y2="12" gradientUnits="userSpaceOnUse">
<stop stop-color="#3AEE49"/>
<stop offset="1" stop-color="#24A8D4"/>
</linearGradient>
<linearGradient id="paint17_linear_1242_17760" x1="0.333374" y1="12" x2="24.3334" y2="12" gradientUnits="userSpaceOnUse">
<stop stop-color="#3AEE49"/>
<stop offset="1" stop-color="#24A8D4"/>
</linearGradient>
<linearGradient id="paint18_linear_1242_17760" x1="0.333374" y1="12" x2="24.3334" y2="12" gradientUnits="userSpaceOnUse">
<stop stop-color="#3AEE49"/>
<stop offset="1" stop-color="#24A8D4"/>
</linearGradient>
<linearGradient id="paint19_linear_1242_17760" x1="0.333374" y1="12" x2="24.3334" y2="12" gradientUnits="userSpaceOnUse">
<stop stop-color="#3AEE49"/>
<stop offset="1" stop-color="#24A8D4"/>
</linearGradient>
<linearGradient id="paint20_linear_1242_17760" x1="0.333374" y1="12" x2="24.3334" y2="12" gradientUnits="userSpaceOnUse">
<stop stop-color="#3AEE49"/>
<stop offset="1" stop-color="#24A8D4"/>
</linearGradient>
<linearGradient id="paint21_linear_1242_17760" x1="0.333374" y1="12" x2="24.3334" y2="12" gradientUnits="userSpaceOnUse">
<stop stop-color="#3AEE49"/>
<stop offset="1" stop-color="#24A8D4"/>
</linearGradient>
<linearGradient id="paint22_linear_1242_17760" x1="0.333374" y1="12" x2="24.3334" y2="12" gradientUnits="userSpaceOnUse">
<stop stop-color="#3AEE49"/>
<stop offset="1" stop-color="#24A8D4"/>
</linearGradient>
<linearGradient id="paint23_linear_1242_17760" x1="0.333374" y1="12" x2="24.3334" y2="12" gradientUnits="userSpaceOnUse">
<stop stop-color="#3AEE49"/>
<stop offset="1" stop-color="#24A8D4"/>
</linearGradient>
<linearGradient id="paint24_linear_1242_17760" x1="0.333374" y1="12" x2="24.3334" y2="12" gradientUnits="userSpaceOnUse">
<stop stop-color="#3AEE49"/>
<stop offset="1" stop-color="#24A8D4"/>
</linearGradient>
<linearGradient id="paint25_linear_1242_17760" x1="0.333374" y1="12" x2="24.3334" y2="12" gradientUnits="userSpaceOnUse">
<stop stop-color="#3AEE49"/>
<stop offset="1" stop-color="#24A8D4"/>
</linearGradient>
<linearGradient id="paint26_linear_1242_17760" x1="0.333374" y1="12" x2="24.3334" y2="12" gradientUnits="userSpaceOnUse">
<stop stop-color="#3AEE49"/>
<stop offset="1" stop-color="#24A8D4"/>
</linearGradient>
<linearGradient id="paint27_linear_1242_17760" x1="0.333374" y1="12" x2="24.3334" y2="12" gradientUnits="userSpaceOnUse">
<stop stop-color="#3AEE49"/>
<stop offset="1" stop-color="#24A8D4"/>
</linearGradient>
<linearGradient id="paint28_linear_1242_17760" x1="0.333374" y1="12" x2="24.3334" y2="12" gradientUnits="userSpaceOnUse">
<stop stop-color="#3AEE49"/>
<stop offset="1" stop-color="#24A8D4"/>
</linearGradient>
<linearGradient id="paint29_linear_1242_17760" x1="0.333374" y1="12" x2="24.3334" y2="12" gradientUnits="userSpaceOnUse">
<stop stop-color="#3AEE49"/>
<stop offset="1" stop-color="#24A8D4"/>
</linearGradient>
<linearGradient id="paint30_linear_1242_17760" x1="0.333374" y1="12" x2="24.3334" y2="12" gradientUnits="userSpaceOnUse">
<stop stop-color="#3AEE49"/>
<stop offset="1" stop-color="#24A8D4"/>
</linearGradient>
<linearGradient id="paint31_linear_1242_17760" x1="0.333374" y1="12" x2="24.3334" y2="12" gradientUnits="userSpaceOnUse">
<stop stop-color="#3AEE49"/>
<stop offset="1" stop-color="#24A8D4"/>
</linearGradient>
<linearGradient id="paint32_linear_1242_17760" x1="0.333374" y1="12" x2="24.3334" y2="12" gradientUnits="userSpaceOnUse">
<stop stop-color="#3AEE49"/>
<stop offset="1" stop-color="#24A8D4"/>
</linearGradient>
<linearGradient id="paint33_linear_1242_17760" x1="0.333374" y1="12" x2="24.3334" y2="12" gradientUnits="userSpaceOnUse">
<stop stop-color="#3AEE49"/>
<stop offset="1" stop-color="#24A8D4"/>
</linearGradient>
<linearGradient id="paint34_linear_1242_17760" x1="0.333374" y1="12" x2="24.3334" y2="12" gradientUnits="userSpaceOnUse">
<stop stop-color="#3AEE49"/>
<stop offset="1" stop-color="#24A8D4"/>
</linearGradient>
<linearGradient id="paint35_linear_1242_17760" x1="0.333374" y1="12" x2="24.3334" y2="12" gradientUnits="userSpaceOnUse">
<stop stop-color="#3AEE49"/>
<stop offset="1" stop-color="#24A8D4"/>
</linearGradient>
<linearGradient id="paint36_linear_1242_17760" x1="0.333374" y1="12" x2="24.3334" y2="12" gradientUnits="userSpaceOnUse">
<stop stop-color="#3AEE49"/>
<stop offset="1" stop-color="#24A8D4"/>
</linearGradient>
<linearGradient id="paint37_linear_1242_17760" x1="0.333374" y1="12" x2="24.3334" y2="12" gradientUnits="userSpaceOnUse">
<stop stop-color="#3AEE49"/>
<stop offset="1" stop-color="#24A8D4"/>
</linearGradient>
<linearGradient id="paint38_linear_1242_17760" x1="0.333374" y1="12" x2="24.3334" y2="12" gradientUnits="userSpaceOnUse">
<stop stop-color="#3AEE49"/>
<stop offset="1" stop-color="#24A8D4"/>
</linearGradient>
<linearGradient id="paint39_linear_1242_17760" x1="0.333374" y1="12" x2="24.3334" y2="12" gradientUnits="userSpaceOnUse">
<stop stop-color="#3AEE49"/>
<stop offset="1" stop-color="#24A8D4"/>
</linearGradient>
<linearGradient id="paint40_linear_1242_17760" x1="0.333374" y1="12" x2="24.3334" y2="12" gradientUnits="userSpaceOnUse">
<stop stop-color="#3AEE49"/>
<stop offset="1" stop-color="#24A8D4"/>
</linearGradient>
<linearGradient id="paint41_linear_1242_17760" x1="0.333374" y1="12" x2="24.3334" y2="12" gradientUnits="userSpaceOnUse">
<stop stop-color="#3AEE49"/>
<stop offset="1" stop-color="#24A8D4"/>
</linearGradient>
<linearGradient id="paint42_linear_1242_17760" x1="0.333374" y1="12" x2="24.3334" y2="12" gradientUnits="userSpaceOnUse">
<stop stop-color="#3AEE49"/>
<stop offset="1" stop-color="#24A8D4"/>
</linearGradient>
<linearGradient id="paint43_linear_1242_17760" x1="0.333374" y1="12" x2="24.3334" y2="12" gradientUnits="userSpaceOnUse">
<stop stop-color="#3AEE49"/>
<stop offset="1" stop-color="#24A8D4"/>
</linearGradient>
<clipPath id="clip0_1242_17760">
<rect width="24" height="24" fill="white" transform="translate(0.333374)"/>
</clipPath>
<clipPath id="clip1_1242_17760">
<rect width="24" height="24" fill="white" transform="translate(0.333374)"/>
</clipPath>
</defs>
</svg>
