<svg width="20" height="20" viewBox="0 0 20 20" fill="none" xmlns="http://www.w3.org/2000/svg">
<path d="M17.4049 2.60051C17.1087 2.30424 16.757 2.06923 16.3699 1.90888C15.9829 1.74854 15.568 1.66602 15.1491 1.66602C14.7301 1.66602 14.3153 1.74854 13.9282 1.90888C13.5411 2.06923 13.1895 2.30424 12.8932 2.60051L11.9766 3.51884C11.9307 3.55544 11.8888 3.59678 11.8516 3.64217L2.75157 12.7438C2.63522 12.8599 2.55578 13.0078 2.52324 13.1688L1.68324 17.3355C1.65584 17.4702 1.66216 17.6095 1.70165 17.7412C1.74114 17.8728 1.81257 17.9926 1.90958 18.0899C2.00659 18.1873 2.12617 18.2591 2.25766 18.2991C2.38915 18.339 2.52848 18.3458 2.66324 18.3188L6.83657 17.4855C6.99766 17.453 7.14552 17.3735 7.26157 17.2572L17.4049 7.11384C17.7012 6.81762 17.9362 6.46593 18.0965 6.07887C18.2569 5.69182 18.3394 5.27696 18.3394 4.85801C18.3394 4.43905 18.2569 4.0242 18.0965 3.63714C17.9362 3.25008 17.7012 2.8984 17.4049 2.60217M12.5032 5.35051L14.6582 7.50551L6.26157 15.9005L3.56491 16.4405L4.10657 13.7472L12.5032 5.35051ZM15.8366 6.32717L13.6816 4.17051L14.0716 3.78051C14.2123 3.63624 14.3804 3.52135 14.5659 3.44248C14.7514 3.36362 14.9507 3.32235 15.1522 3.32108C15.3538 3.3198 15.5536 3.35854 15.7401 3.43506C15.9266 3.51157 16.096 3.62433 16.2386 3.76681C16.3812 3.90928 16.4941 4.07864 16.5707 4.26506C16.6474 4.45149 16.6863 4.65127 16.6852 4.85283C16.684 5.0544 16.6429 5.25374 16.5642 5.4393C16.4855 5.62486 16.3707 5.79296 16.2266 5.93384L15.8366 6.32717Z" fill="#E1DEE8"/>
</svg>
