<svg width="20" height="20" viewBox="0 0 20 20" fill="none" xmlns="http://www.w3.org/2000/svg">
<g clip-path="url(#clip0_4365_5462)">
<path d="M17.5002 10.0002C17.5002 5.85803 14.1423 2.50016 10.0002 2.50016C5.85803 2.50016 2.50016 5.85803 2.50016 10.0002C2.50016 14.1423 5.85803 17.5002 10.0002 17.5002C14.1423 17.5002 17.5002 14.1423 17.5002 10.0002ZM11.911 6.91097C12.2364 6.58553 12.7639 6.58553 13.0894 6.91097C13.4148 7.23641 13.4148 7.76392 13.0894 8.08936L11.1785 10.0002L13.0894 11.911L13.1463 11.9744C13.4133 12.3018 13.3945 12.7843 13.0894 13.0894C12.7843 13.3945 12.3018 13.4133 11.9744 13.1463L11.911 13.0894L10.0002 11.1785L8.08936 13.0894C7.76392 13.4148 7.23641 13.4148 6.91097 13.0894C6.58553 12.7639 6.58553 12.2364 6.91097 11.911L8.82178 10.0002L6.91097 8.08936L6.854 8.02588C6.58705 7.69857 6.60587 7.21607 6.91097 6.91097C7.21607 6.60587 7.69857 6.58705 8.02588 6.854L8.08936 6.91097L10.0002 8.82178L11.911 6.91097ZM19.1668 10.0002C19.1668 15.0628 15.0628 19.1668 10.0002 19.1668C4.93755 19.1668 0.833496 15.0628 0.833496 10.0002C0.833496 4.93755 4.93755 0.833496 10.0002 0.833496C15.0628 0.833496 19.1668 4.93755 19.1668 10.0002Z" fill="#C2C4C8"/>
</g>
<defs>
<clipPath id="clip0_4365_5462">
<rect width="20" height="20" fill="white"/>
</clipPath>
</defs>
</svg>
