<svg width="24" height="24" viewBox="0 0 24 24" fill="none" xmlns="http://www.w3.org/2000/svg">
<g clip-path="url(#clip0_2874_6191)">
<path d="M22.3851 11.8351C24.2931 10.6655 25.3377 9.55301 25.0996 8.74034C24.8462 7.87056 23.1739 7.50647 20.6714 7.62188C20.6785 7.63497 20.6844 7.64806 20.6903 7.66115C19.082 4.45094 15.8002 2.33301 12.0909 2.33301C7.86516 2.33301 4.24109 5.07561 2.95964 8.94737C2.96674 8.92477 2.97385 8.90097 2.98214 8.87836C-2.19696 9.35787 -2.86611 11.283 1.79662 13.2998C-0.111341 14.4695 -1.15593 15.582 -0.917875 16.3946C-0.64311 17.3382 1.30039 17.6856 4.16174 17.4738C5.17316 18.9504 6.5612 20.101 8.1494 20.8185C9.35268 21.3622 10.6862 21.6645 12.0909 21.6645C15.8002 21.6645 19.1021 19.543 20.7105 16.2959C20.881 16.2661 25.2856 16.0579 25.507 14.5147C25.6266 13.6758 24.4376 12.7228 22.3851 11.8351ZM20.7744 7.8313C22.8127 7.72659 24.1415 7.98479 24.3322 8.6392C24.6436 9.7053 21.8095 11.2105 21.6864 11.2961C21.5975 10.042 21.2695 8.85456 20.7484 7.77775C20.7567 7.7956 20.7661 7.81345 20.7744 7.8313ZM2.9099 9.09968C2.93477 9.01758 2.46933 10.3097 2.46933 11.9981C2.46933 12.2623 2.47998 12.486 2.49538 12.699C2.49538 12.699 2.49538 12.699 2.4942 12.699C-1.71375 11.0689 -1.6415 9.49589 2.9099 9.09968ZM-0.326893 15.8949C-0.510465 15.2655 0.389631 14.3731 2.03586 13.401C2.33549 13.5247 2.5392 13.6032 2.60671 13.6294C2.79028 14.7181 3.15624 15.7438 3.67024 16.6766C3.55654 16.6742 0.00235224 17.0217 -0.326893 15.8949ZM24.8509 14.1042C24.6863 15.25 21.2126 15.4166 21.0847 15.438C21.485 14.3814 21.6852 13.3022 21.71 12.2314C21.8368 12.1588 21.9635 12.0886 22.1625 11.9696C23.9271 12.699 24.9445 13.4545 24.8509 14.1042Z" fill="url(#paint0_radial_2874_6191)"/>
<path d="M20.0972 11.9999C20.0972 12.2807 20.083 12.5579 20.0545 12.8316C20.0273 13.1017 19.9859 13.3682 19.9326 13.6311C19.8035 14.2594 19.6021 14.8602 19.3368 15.4242C19.0644 16.0061 18.7234 16.5498 18.3266 17.0448C17.9216 17.5505 17.4561 18.005 16.9409 18.3989C16.241 18.9355 15.4498 19.3591 14.5959 19.6411C13.8084 19.9028 12.9651 20.0432 12.0899 20.0432C10.9209 20.0432 9.81123 19.791 8.81046 19.3388C7.78838 18.8772 6.88118 18.2073 6.14097 17.3815C4.95545 16.0596 4.19984 14.3391 4.09681 12.4449C4.08851 12.2973 4.08496 12.1486 4.08496 11.9987C4.08496 11.2895 4.17615 10.6018 4.34788 9.94617C4.47579 9.45596 4.64989 8.98478 4.86189 8.53621C6.14926 5.82692 8.90166 3.9541 12.0911 3.9541C14.7357 3.9541 17.0819 5.24271 18.5386 7.22856C18.7731 7.54863 18.9851 7.88774 19.1722 8.24112C19.6874 9.21918 20.0084 10.3174 20.0806 11.4835C20.0913 11.656 20.0972 11.8273 20.0972 11.9999Z" fill="url(#paint1_radial_2874_6191)"/>
<path d="M8.68456 16.1575C8.6739 16.1598 8.66324 16.1622 8.65258 16.1646C8.36953 16.2122 8.32334 15.8338 8.4169 15.5019C8.48915 15.2472 8.65022 15.0093 8.80181 15.0069C8.848 15.0057 8.893 15.0271 8.93446 15.0759C9.43425 15.6684 8.97117 16.0861 8.68456 16.1575Z" fill="#3D3789"/>
<path d="M8.81109 19.3376C7.78901 18.8759 6.88181 18.206 6.1416 17.3803C6.27543 17.3279 6.43058 17.297 6.6106 17.2934C6.66152 17.2922 6.71482 17.2934 6.7693 17.297C8.18221 17.3922 8.22958 18.2905 8.6062 18.7641C8.69148 18.8712 8.74477 18.9652 8.77675 19.0484C8.82531 19.171 8.8253 19.2674 8.81109 19.3376Z" fill="#4A3E9E"/>
<g opacity="0.75">
<path d="M10.5371 18.6221C9.87383 17.9999 9.12652 17.7952 9.15613 17.3014C9.15849 17.2693 9.16323 17.2372 9.17152 17.2027C9.31246 16.6351 10.7301 17.1265 11.3377 17.2027C12.0909 17.2978 12.7506 17.2978 12.8915 18.2914C13.0325 19.2849 11.2429 19.2849 10.5371 18.6221Z" fill="#4A3E9E"/>
<path d="M14.9642 16.9202C14.4206 17.088 13.7668 16.9583 13.6259 16.6287C13.6081 16.5871 13.5986 16.5418 13.5986 16.4942C13.5986 16.0683 14.5994 16.0254 14.9642 15.7375C15.3195 15.4567 15.6357 15.2556 15.8808 15.2342C16.0905 15.2163 16.2468 15.3318 16.3297 15.6423C16.518 16.3527 15.5765 16.731 14.9642 16.9202Z" fill="#4A3E9E"/>
<path d="M18.1189 11.4315C17.8205 11.5981 17.4534 11.7409 17.3764 11.4827C17.3432 11.3732 17.3622 11.1924 17.4605 10.9116C17.7127 10.1869 18.402 9.8514 18.8201 9.98942C18.948 10.0311 19.051 10.1167 19.1079 10.2488C19.4371 11.0056 18.5429 11.1947 18.1189 11.4315Z" fill="#4A3E9E"/>
<path d="M7.39322 14.2637C7.38967 14.2661 7.38612 14.2685 7.38256 14.2709C6.50379 14.7528 5.30997 13.6557 5.40472 13.2298C5.4213 13.1584 5.44143 13.1048 5.46986 13.0644C5.60961 12.8657 5.92346 13.0096 6.62932 13.0882C7.4702 13.1822 7.8942 13.9758 7.39322 14.2637Z" fill="#4A3E9E"/>
<path d="M5.40202 11.7142C5.37004 11.7344 5.33925 11.7487 5.30964 11.7582C5.00882 11.8534 4.91881 11.3465 4.78972 10.9574C4.6701 10.5981 4.78617 10.4743 4.93776 10.5017C4.96619 10.5065 4.99579 10.5172 5.0254 10.5314C5.49677 10.767 5.77864 11.4774 5.40202 11.7142Z" fill="#4A3E9E"/>
<path d="M16.9398 18.3988C16.2399 18.9355 15.4488 19.3591 14.5949 19.641C14.5605 19.6054 14.5285 19.5661 14.5025 19.5233C14.3959 19.3567 14.3663 19.1366 14.5392 18.8593C14.9288 18.2323 15.386 18.431 16.0469 18.2918C16.2932 18.2394 16.4851 18.2406 16.6355 18.2715C16.7669 18.2977 16.8664 18.3465 16.9398 18.3988Z" fill="#4A3E9E"/>
<path d="M19.9316 13.6285C19.6699 14.9028 19.1085 16.0665 18.3256 17.0421C18.2309 16.9933 18.1456 16.9255 18.0769 16.8315C18.0746 16.8291 18.0722 16.8256 18.071 16.8232C17.5996 16.1605 18.3067 15.5453 18.5886 14.3626C18.7591 13.6463 19.2411 13.5368 19.5941 13.563C19.7374 13.5725 19.8594 13.6058 19.9316 13.6285Z" fill="#4A3E9E"/>
<path d="M20.0953 11.9984C20.0953 12.2792 20.0811 12.5564 20.0526 12.8301C19.9626 12.8206 19.8726 12.7908 19.8134 12.7123C19.7933 12.6849 19.7767 12.6528 19.7648 12.6124C19.6701 12.2816 19.3385 12.4089 19.4356 12.0924C19.5303 11.783 19.7092 11.6295 19.862 11.5534C19.9484 11.5106 20.0278 11.4915 20.0787 11.4844C20.0893 11.6545 20.0953 11.8259 20.0953 11.9984Z" fill="#4A3E9E"/>
<path d="M12.6554 15.8794C12.6554 15.8806 12.6554 15.8818 12.6542 15.8829C12.5559 16.3041 11.5954 16.1554 11.336 16.0686C11.053 15.9734 10.3957 15.5248 10.5828 15.075C10.6491 14.9156 10.7486 14.8597 10.867 14.8668C11.1667 14.8811 11.5836 15.2916 11.8548 15.3594C12.3664 15.4867 12.7276 15.5534 12.6554 15.8794Z" fill="#4A3E9E"/>
<path d="M6.29809 15.6887C6.26611 15.7447 6.22939 15.7875 6.18676 15.8184C5.98305 15.9684 5.67631 15.8303 5.40273 15.5948C5.17534 15.3984 5.08177 15.0665 5.186 14.9748C5.23218 14.9332 5.31864 14.9403 5.4501 15.0272C5.8741 15.3104 6.48639 15.3568 6.29809 15.6887Z" fill="#4A3E9E"/>
<path d="M16.835 15.3908C16.6787 15.5241 16.4987 15.3991 16.4063 15.2397C16.3743 15.185 16.353 15.1279 16.3459 15.0743C16.3175 14.8649 16.3826 14.7852 16.6893 14.9411C16.8208 15.0077 16.9049 15.0684 16.9404 15.1302C16.9854 15.21 16.9523 15.2909 16.835 15.3908Z" fill="#4A3E9E"/>
<path d="M16.9418 13.6565C16.9394 13.6517 16.9358 13.6458 16.9335 13.641C16.77 13.3245 17.2746 13.2746 17.4605 13.0414C17.6228 12.8379 17.965 12.5464 18.1427 12.726C18.1711 12.7546 18.196 12.7962 18.2137 12.8522C18.4482 13.5613 17.1301 13.9873 16.9418 13.6565Z" fill="#4A3E9E"/>
<path d="M13.4078 18.8597C13.3238 18.8431 13.1982 18.7788 13.1402 18.517C13.1354 18.4921 13.1295 18.4635 13.126 18.4338C13.0786 18.103 13.0786 17.7246 13.2669 17.7246C13.3617 17.7246 13.3616 18.0554 13.6909 18.3874C13.7264 18.4231 13.7466 18.4635 13.7549 18.5051C13.7904 18.6872 13.5997 18.8978 13.4078 18.8597Z" fill="#4A3E9E"/>
<path d="M14.6295 14.4948C14.5478 14.4817 14.4684 14.4532 14.3974 14.4115C13.9402 14.1367 14.4625 13.1515 14.9208 13.5215C14.935 13.5334 14.9481 13.5453 14.9623 13.5596C15.603 14.2021 15.0878 14.571 14.6295 14.4948Z" fill="#4A3E9E"/>
<path d="M8.68378 16.1575C8.63167 16.098 8.58548 16.023 8.55824 15.9278C8.48244 15.6637 8.70865 15.1877 8.80221 15.0069C8.8484 15.0057 8.8934 15.0271 8.93486 15.0759C9.43346 15.6684 8.97039 16.0861 8.68378 16.1575Z" fill="#4A3E9E"/>
</g>
<g opacity="0.7">
<path d="M9.40612 15.6885C9.31137 15.6885 9.26518 16.0669 9.35874 16.1144C9.45349 16.162 9.78274 15.6885 9.40612 15.6885Z" fill="#3D3789"/>
<path d="M18.6631 8.94471C18.2545 8.90426 18.3031 9.4028 18.6844 9.50394C19.0658 9.60508 19.3879 9.0161 18.6631 8.94471Z" fill="#3D3789"/>
<path d="M16.5653 17.1582C16.3119 17.1582 16.3296 17.3474 16.5653 17.5366C16.7998 17.7258 17.4595 17.1582 16.5653 17.1582Z" fill="#3D3789"/>
<path d="M5.96693 11.7639C5.65189 11.8912 5.87218 12.1423 6.10786 12.2374C6.34473 12.3314 6.43829 11.5747 5.96693 11.7639Z" fill="#3D3789"/>
<path d="M5.12065 9.39811C4.92997 9.43619 5.0259 9.72889 5.30896 9.77648C5.59083 9.82408 5.59083 9.30411 5.12065 9.39811Z" fill="#3D3789"/>
<path d="M18.6364 8.16662C18.4007 8.21421 18.6838 8.68658 18.8721 8.49739C19.0604 8.30821 18.8721 8.11902 18.6364 8.16662Z" fill="#3D3789"/>
<path d="M10.4421 13.984C10.2325 14.1006 10.4895 14.5039 10.8187 14.4099C11.1491 14.3159 10.8661 13.7472 10.4421 13.984Z" fill="#3D3789"/>
</g>
<path d="M13.7553 18.5039C13.7908 18.686 13.6001 18.8966 13.4083 18.8585C13.3242 18.8418 13.1987 18.7776 13.1406 18.5158C13.381 18.6407 13.5966 18.5884 13.7553 18.5039Z" fill="#3D3789"/>
<path d="M4.78972 10.9555C4.6701 10.5961 4.78617 10.4724 4.93776 10.4998C4.78854 10.8258 5.13555 11.4683 5.31083 11.7562C5.00882 11.8514 4.91881 11.3445 4.78972 10.9555Z" fill="#3D3789"/>
<path d="M6.18676 15.8192C5.98305 15.9691 5.67631 15.8311 5.40273 15.5955C5.17534 15.3992 5.08177 15.0672 5.186 14.9756C5.29851 15.4837 5.85396 15.7216 6.18676 15.8192Z" fill="#3D3789"/>
<path d="M7.39322 14.2619C7.38967 14.2642 7.38612 14.2666 7.38256 14.269C6.50379 14.7509 5.30997 13.6539 5.40472 13.2279C5.4213 13.1565 5.44143 13.103 5.46986 13.0625C5.60132 13.241 5.8145 13.4694 6.15796 13.749C6.69091 14.1833 7.11609 14.2726 7.39322 14.2619Z" fill="#3D3789"/>
<path d="M10.5824 15.076C10.6487 14.9166 10.7482 14.8606 10.8667 14.8678C10.6973 15.0962 10.6416 15.3889 11.0064 15.6912C11.5773 16.1623 12.2902 16.01 12.6538 15.8839C12.5555 16.3051 11.595 16.1564 11.3357 16.0695C11.0538 15.9743 10.3965 15.5258 10.5824 15.076Z" fill="#3D3789"/>
<path d="M12.8915 18.2907C13.0325 19.2843 11.2429 19.2843 10.5371 18.6215C9.87383 17.9992 9.12652 17.7946 9.15613 17.3008C9.60499 17.5685 10.344 18.142 11.1967 18.6691C12.4202 19.4258 12.8915 18.2907 12.8915 18.2907Z" fill="#3D3789"/>
<path d="M14.6289 14.4958C15.0482 14.3958 14.9866 13.8294 14.9202 13.5225C14.9345 13.5344 14.9475 13.5463 14.9617 13.5605C15.6024 14.2031 15.0872 14.5719 14.6289 14.4958Z" fill="#3D3789"/>
<path d="M16.3288 15.6423C16.5171 16.3515 15.5756 16.731 14.9633 16.9202C14.4197 17.088 13.7659 16.9583 13.625 16.6287C13.7742 16.7096 13.985 16.8001 14.2101 16.825C14.6341 16.8726 15.623 16.6834 15.9522 16.0207C16.1429 15.6388 16.0185 15.3818 15.88 15.2342C16.0896 15.2164 16.2459 15.3306 16.3288 15.6423Z" fill="#3D3789"/>
<path d="M16.9392 15.1328C16.9854 15.2113 16.9522 15.2934 16.835 15.3934C16.6786 15.5266 16.4986 15.4017 16.4062 15.2423C16.6348 15.3506 16.8302 15.2316 16.9392 15.1328Z" fill="#3D3789"/>
<path d="M18.2119 12.8498C18.4476 13.5589 17.1282 13.9849 16.9399 13.6541C16.9376 13.6493 16.934 13.6434 16.9316 13.6386C17.9667 13.5482 18.1468 13.0651 18.1397 12.7236C18.1693 12.7522 18.1941 12.7938 18.2119 12.8498Z" fill="#3D3789"/>
<path d="M18.1195 11.4311C17.8211 11.5977 17.4539 11.7405 17.377 11.4823C17.7263 11.1682 18.5317 11.0813 18.9213 10.7696C19.2328 10.5197 19.009 10.1866 18.8218 9.99023C18.9497 10.0319 19.0528 10.1175 19.1096 10.2496C19.4377 11.0052 18.5435 11.1944 18.1195 11.4311Z" fill="#3D3789"/>
<path d="M8.77675 19.046C8.82531 19.1698 8.82649 19.2662 8.81109 19.3352C7.78901 18.8735 6.88181 18.2036 6.1416 17.3779C6.27543 17.3255 6.43058 17.2946 6.6106 17.291C6.78588 17.5337 7.03341 17.8312 7.3816 18.1941C7.71203 18.538 8.20235 18.8212 8.77675 19.046Z" fill="#3D3789"/>
<path d="M16.6347 18.2715C16.7686 18.2965 16.8669 18.3453 16.9403 18.3988C16.2403 18.9354 15.4492 19.359 14.5953 19.641C14.561 19.6053 14.529 19.566 14.5029 19.5232C15.3959 19.2043 16.2285 18.5963 16.6347 18.2715Z" fill="#3D3789"/>
<path d="M19.9318 13.6299C19.6701 14.9042 19.1087 16.0679 18.3259 17.0436C18.2311 16.9948 18.1458 16.927 18.0771 16.833C19.0175 15.9763 19.4794 14.1011 19.5955 13.5645C19.7376 13.574 19.8596 13.6073 19.9318 13.6299Z" fill="#3D3789"/>
<path d="M20.0963 11.9984C20.0963 12.2792 20.0821 12.5564 20.0537 12.8301C19.9637 12.8206 19.8737 12.7908 19.8145 12.7123C20.049 12.4208 19.9388 11.8413 19.863 11.5534C19.9495 11.5106 20.0288 11.4915 20.0797 11.4844C20.0904 11.6545 20.0963 11.8259 20.0963 11.9984Z" fill="#3D3789"/>
<path opacity="0.35" d="M20.0971 11.9987C20.0971 12.2796 20.0828 12.5568 20.0544 12.8305C20.0272 13.1005 19.9857 13.3671 19.9324 13.63C19.6707 14.9044 19.1093 16.068 18.3265 17.0437C17.9214 17.5494 17.456 18.0039 16.9408 18.3977C16.2409 18.9344 15.4497 19.358 14.5958 19.64C13.8082 19.9017 12.965 20.0421 12.0898 20.0421C10.9208 20.0421 9.8111 19.7899 8.81034 19.3377C7.78826 18.8761 6.88105 18.2062 6.14084 17.3804C4.95532 16.0585 4.19972 14.338 4.09668 12.4438C6.32205 19.2604 19.9324 18.1253 19.1721 8.24121C19.6873 9.21927 20.0082 10.3175 20.0805 11.4835C20.0911 11.6549 20.0971 11.8262 20.0971 11.9987Z" fill="url(#paint2_linear_2874_6191)"/>
<path opacity="0.55" d="M19.3368 15.4234C19.0644 16.0052 18.7233 16.549 18.3266 17.0439C17.9216 17.5496 17.4561 18.0042 16.9409 18.398C16.241 18.9346 15.4498 19.3582 14.5959 19.6402C13.8084 19.902 12.9651 20.0424 12.0899 20.0424C10.9209 20.0424 9.81123 19.7901 8.81046 19.338C7.78838 18.8763 6.88118 18.2064 6.14097 17.3807C4.95545 16.0588 4.19984 14.3382 4.09681 12.444C4.08851 12.2965 4.08496 12.1477 4.08496 11.9978C4.08496 11.2887 4.17615 10.6009 4.34788 9.94531C5.97753 13.3126 10.4129 19.708 19.3368 15.4234Z" fill="url(#paint3_linear_2874_6191)"/>
<path d="M20.658 11.8627C20.4768 11.7842 20.2873 11.7069 20.0895 11.6295C20.0125 11.5998 19.9343 11.5688 19.855 11.5391C19.7839 11.5784 19.7117 11.6176 19.6371 11.6557C19.7958 11.7116 19.9485 11.7687 20.0966 11.8247C20.2257 11.8746 20.3512 11.9246 20.472 11.9746C21.9418 12.5814 22.7874 13.2096 22.7092 13.751C22.624 14.3448 21.4384 14.7243 19.5755 14.8612C18.1057 14.9694 16.2131 14.9254 14.1062 14.7196C13.4986 14.6589 12.8721 14.5863 12.2338 14.4994C12.0928 14.4804 11.9507 14.4602 11.8074 14.4388C8.93067 14.0211 6.35711 13.4012 4.50599 12.7325C4.42782 12.704 4.35084 12.6754 4.27504 12.6468C4.21701 12.6254 4.16135 12.604 4.1045 12.5826C2.43814 11.9377 1.46343 11.2571 1.54634 10.6788C1.62806 10.1089 2.72001 9.73767 4.45033 9.58775C4.46928 9.52587 4.48941 9.464 4.51073 9.40332C2.39787 9.59846 1.0347 10.0982 0.926927 10.8526C0.826259 11.551 1.81636 12.3434 3.52417 13.0835C3.58931 13.1121 3.65563 13.1394 3.72314 13.168C3.87592 13.2311 4.03462 13.2953 4.19688 13.3572C5.83837 13.9878 7.99149 14.5637 10.4087 14.9837C10.8303 15.0575 11.2614 15.1265 11.6985 15.1896C11.8962 15.2181 12.0917 15.2455 12.2871 15.2705C14.9305 15.6203 17.3631 15.7119 19.2628 15.5763C21.6054 15.4097 23.138 14.8957 23.2528 14.0937C23.3559 13.3953 22.3658 12.6016 20.658 11.8627Z" fill="url(#paint4_linear_2874_6191)"/>
<path d="M18.539 7.23073C17.7123 6.44067 15.6481 4.43577 11.4555 4.8308C7.65615 5.19014 5.64397 7.43062 4.8623 8.53718C6.14968 5.8279 8.90207 3.95508 12.0915 3.95508C14.7361 3.95627 17.0823 5.24487 18.539 7.23073Z" fill="url(#paint5_linear_2874_6191)"/>
</g>
<defs>
<radialGradient id="paint0_radial_2874_6191" cx="0" cy="0" r="1" gradientUnits="userSpaceOnUse" gradientTransform="translate(12.0905 11.9983) scale(9.08136 9.12362)">
<stop stop-color="#C7F1F6"/>
<stop offset="1" stop-color="#D3F4F9" stop-opacity="0"/>
</radialGradient>
<radialGradient id="paint1_radial_2874_6191" cx="0" cy="0" r="1" gradientUnits="userSpaceOnUse" gradientTransform="translate(10.9607 7.74166) scale(14.1139 14.1795)">
<stop stop-color="#31E7C2"/>
<stop offset="1" stop-color="#652FB0"/>
</radialGradient>
<linearGradient id="paint2_linear_2874_6191" x1="16.1906" y1="23.3572" x2="10.1126" y2="6.67308" gradientUnits="userSpaceOnUse">
<stop stop-color="#4A3E9E"/>
<stop offset="1" stop-color="#4AE09E" stop-opacity="0.5"/>
</linearGradient>
<linearGradient id="paint3_linear_2874_6191" x1="12.3959" y1="21.7535" x2="11.2868" y2="9.137" gradientUnits="userSpaceOnUse">
<stop stop-color="#3D3789"/>
<stop offset="1" stop-color="#3DCC5E" stop-opacity="0.2"/>
</linearGradient>
<linearGradient id="paint4_linear_2874_6191" x1="11.844" y1="16.9219" x2="12.2718" y2="9.30434" gradientUnits="userSpaceOnUse">
<stop stop-color="#83ECEC"/>
<stop offset="1" stop-color="#8EE2D3" stop-opacity="0.3"/>
</linearGradient>
<linearGradient id="paint5_linear_2874_6191" x1="11.6741" y1="2.72171" x2="11.6976" y2="7.19903" gradientUnits="userSpaceOnUse">
<stop stop-color="#C7F1F6"/>
<stop offset="1" stop-color="#D3F4F9" stop-opacity="0"/>
</linearGradient>
<clipPath id="clip0_2874_6191">
<rect width="24" height="24" fill="white"/>
</clipPath>
</defs>
</svg>
