<svg width="40" height="40" viewBox="0 0 40 40" fill="none" xmlns="http://www.w3.org/2000/svg">
<g opacity="0.22">
<g clip-path="url(#clip0_1238_17339)">
<path d="M36.0007 13.1504H34.4707V14.6704H36.0007V13.1504Z" fill="white"/>
<path d="M36.0007 8.57031H34.4707V10.1003H36.0007V8.57031Z" fill="white"/>
<path d="M36.0007 4H34.4707V5.53H36.0007V4Z" fill="white"/>
<path d="M34.4692 17.7197H32.9492V19.2397H34.4692V17.7197Z" fill="white"/>
<path d="M34.4692 10.0996H32.9492V11.6196H34.4692V10.0996Z" fill="white"/>
<path d="M34.4692 5.53027H32.9492V7.05027H34.4692V5.53027Z" fill="white"/>
<path d="M32.9497 19.2402H31.4297V20.7702H32.9497V19.2402Z" fill="white"/>
<path d="M32.9497 11.6201H31.4297V13.1501H32.9497V11.6201Z" fill="white"/>
<path d="M32.9497 7.0498H31.4297V8.5698H32.9497V7.0498Z" fill="white"/>
<path d="M31.4304 20.7695H29.9004V23.8095H31.4304V20.7695Z" fill="white"/>
<path d="M31.4304 14.6699H29.9004V16.1899H31.4304V14.6699Z" fill="white"/>
<path d="M31.4304 8.57031H29.9004V10.1003H31.4304V8.57031Z" fill="white"/>
<path d="M31.4304 4H29.9004V5.53H31.4304V4Z" fill="white"/>
<path d="M29.9009 23.8096H28.3809V26.8596H29.9009V23.8096Z" fill="white"/>
<path d="M29.9009 16.1904H28.3809V17.7204H29.9009V16.1904Z" fill="white"/>
<path d="M29.9009 10.0996H28.3809V11.6196H29.9009V10.0996Z" fill="white"/>
<path d="M29.9009 5.53027H28.3809V7.05027H29.9009V5.53027Z" fill="white"/>
<path d="M28.3796 26.8604H26.8496V29.9104H28.3796V26.8604Z" fill="white"/>
<path d="M28.3796 7.0498H26.8496V8.5698H28.3796V7.0498Z" fill="white"/>
<path d="M26.8501 19.2402H25.3301V20.7702H26.8501V19.2402Z" fill="white"/>
<path d="M26.8501 13.1504H25.3301V14.6704H26.8501V13.1504Z" fill="white"/>
<path d="M26.8501 4H25.3301V5.53H26.8501V4Z" fill="white"/>
<path d="M26.8505 29.9102H23.8105V31.4302H26.8505V29.9102Z" fill="white"/>
<path d="M25.3305 8.57031H23.8105V10.1003H25.3305V8.57031Z" fill="white"/>
<path d="M25.3305 5.53027H23.8105V7.05027H25.3305V5.53027Z" fill="white"/>
<path d="M23.8093 31.4297H22.2793V32.9597H23.8093V31.4297Z" fill="white"/>
<path d="M23.8093 16.1904H22.2793V17.7204H23.8093V16.1904Z" fill="white"/>
<path d="M22.2798 11.6201H20.7598V13.1501H22.2798V11.6201Z" fill="white"/>
<path d="M22.2798 5.53027H20.7598V7.05027H22.2798V5.53027Z" fill="white"/>
<path d="M22.2802 32.96H19.2402V34.48H22.2802V32.96Z" fill="white"/>
<path d="M20.7602 13.1504H19.2402V14.6704H20.7602V13.1504Z" fill="white"/>
<path d="M20.7609 7.0498H17.7109V8.5698H20.7609V7.0498Z" fill="white"/>
<path d="M19.2406 34.4805H13.1406V36.0005H19.2406V34.4805Z" fill="white"/>
<path d="M17.7095 8.57031H16.1895V10.1003H17.7095V8.57031Z" fill="white"/>
<path d="M16.1906 10.0996H13.1406V11.6196H16.1906V10.0996Z" fill="white"/>
<path d="M19.2403 31.4304V29.9104H20.7603V28.3804H22.2803V26.8604H23.8103V20.7704H22.2803V19.2404H20.7603V17.7204H19.2403V16.1904H13.1403V17.7204H11.6203V19.2404H10.0903V20.7704H8.57031V26.8604H10.0903V28.3804H11.6203V29.9104H13.1403V31.4304H19.2403ZM16.1903 19.2404H19.2403V20.7704H20.7603V22.2904H22.2803V25.3404H20.7603V22.2904H19.2403V20.7704H16.1903V19.2404Z" fill="white"/>
<path d="M13.1403 32.96H8.57031V34.48H13.1403V32.96Z" fill="white"/>
<path d="M13.1398 11.6201H10.0898V13.1501H13.1398V11.6201Z" fill="white"/>
<path d="M10.0903 13.1504H8.57031V14.6704H10.0903V13.1504Z" fill="white"/>
<path d="M8.57078 31.4297H7.05078V32.9597H8.57078V31.4297Z" fill="white"/>
<path d="M8.57078 14.6699H7.05078V16.1899H8.57078V14.6699Z" fill="white"/>
<path d="M7.04953 28.3799H5.51953V31.4299H7.04953V28.3799Z" fill="white"/>
<path d="M7.04953 16.1904H5.51953V19.2404H7.04953V16.1904Z" fill="white"/>
<path d="M5.52 19.2402H4V28.3802H5.52V19.2402Z" fill="white"/>
</g>
</g>
<defs>
<clipPath id="clip0_1238_17339">
<rect width="32" height="32" fill="white" transform="translate(4 4)"/>
</clipPath>
</defs>
</svg>
