<svg width="114" height="16" viewBox="0 0 114 16" fill="none" xmlns="http://www.w3.org/2000/svg">
<path d="M16 14.4V16H1.6V14.4H0V1.6H1.6V0H17.6V3.2H6.4V12.8H11.2V9.6H8V6.4H16V8H17.6V14.4H16Z" fill="white"/>
<path d="M25.5875 9.6V16H19.1875V0H35.1875V1.6H36.7875V6.4H35.1875V9.6H36.7875V16H30.3875V9.6H25.5875ZM25.5875 3.2V6.4H30.3875V3.2H25.5875Z" fill="white"/>
<path d="M54.375 14.4V16H39.975V14.4H38.375V1.6H39.975V0H54.375V1.6H55.975V14.4H54.375ZM49.575 3.2H44.775V12.8H49.575V3.2Z" fill="white"/>
<path d="M63.9625 14.4V16H57.5625V0H63.9625V8H65.5625V6.4H67.1625V4.8H68.7625V6.4H70.3625V8H71.9625V0H78.3625V16H71.9625V14.4H70.3625V12.8H68.7625V11.2H67.1625V12.8H65.5625V14.4H63.9625Z" fill="white"/>
<path d="M79.9688 3.2V0H95.9688V3.2H91.1687V12.8H95.9688V16H79.9688V12.8H84.7687V3.2H79.9688Z" fill="white"/>
<path d="M108.762 3.2V16H102.362V3.2H97.5625V0H113.562V3.2H108.762Z" fill="white"/>
</svg>
