<svg width="24" height="24" viewBox="0 0 24 24" fill="none" xmlns="http://www.w3.org/2000/svg">
<g clip-path="url(#clip0_696_14614)">
<path d="M17.7159 15.4281H16.5759V16.5681H15.4284V17.7156H13.1484V18.8556H15.4284V19.9956H16.5759V21.1431H17.7159V22.2831H18.8559V23.4306H22.2909V22.2831H23.4309V18.8556H22.2909V17.7156H21.1434V16.5681H20.0034V15.4281H18.8559V13.1406H17.7159V15.4281ZM18.8559 17.7156H20.0034V18.8556H21.1434V19.9956H22.2909V21.1431H21.1434V19.9956H20.0034V18.8556H18.8559V17.7156Z" fill="#C2C4C8" fill-opacity="0.88"/>
<path d="M20.003 7.42578H18.8555V13.1408H20.003V7.42578Z" fill="#C2C4C8" fill-opacity="0.88"/>
<path d="M18.8548 5.13867H17.7148V7.42617H18.8548V5.13867Z" fill="#C2C4C8" fill-opacity="0.88"/>
<path d="M17.7142 3.99805H16.5742V5.13805H17.7142V3.99805Z" fill="#C2C4C8" fill-opacity="0.88"/>
<path d="M16.5772 2.85742H15.4297V3.99742H16.5772V2.85742Z" fill="#C2C4C8" fill-opacity="0.88"/>
<path d="M6.28453 15.4287H7.43203V14.2812H8.57203V13.1412H9.71203V12.0012H10.8595V13.1412H11.9995V14.2812H13.147V15.4287H14.287V14.2812H15.427V13.1412H14.287V12.0012H13.147V10.8537H11.9995V9.71367H13.147V8.57367H14.287V7.42617H15.427V6.28617H14.287V5.13867H13.147V6.28617H11.9995V7.42617H10.8595V8.57367H9.71203V7.42617H8.57203V6.28617H7.43203V5.13867H6.28453V6.28617H5.14453V7.42617H6.28453V8.57367H7.43203V9.71367H8.57203V10.8537H7.43203V12.0012H6.28453V13.1412H5.14453V14.2812H6.28453V15.4287Z" fill="#C2C4C8" fill-opacity="0.88"/>
<path d="M15.4284 1.71094H13.1484V2.85844H15.4284V1.71094Z" fill="#C2C4C8" fill-opacity="0.88"/>
<path d="M13.1486 18.8555H7.43359V19.9955H13.1486V18.8555Z" fill="#C2C4C8" fill-opacity="0.88"/>
<path d="M13.1486 0.570312H7.43359V1.71031H13.1486V0.570312Z" fill="#C2C4C8" fill-opacity="0.88"/>
<path d="M7.43203 17.7148H5.14453V18.8548H7.43203V17.7148Z" fill="#C2C4C8" fill-opacity="0.88"/>
<path d="M7.43203 1.71094H5.14453V2.85844H7.43203V1.71094Z" fill="#C2C4C8" fill-opacity="0.88"/>
<path d="M5.14391 16.5684H4.00391V17.7159H5.14391V16.5684Z" fill="#C2C4C8" fill-opacity="0.88"/>
<path d="M5.14391 2.85742H4.00391V3.99742H5.14391V2.85742Z" fill="#C2C4C8" fill-opacity="0.88"/>
<path d="M4.00688 15.4277H2.85938V16.5677H4.00688V15.4277Z" fill="#C2C4C8" fill-opacity="0.88"/>
<path d="M4.00688 3.99805H2.85938V5.13805H4.00688V3.99805Z" fill="#C2C4C8" fill-opacity="0.88"/>
<path d="M2.85875 13.1406H1.71875V15.4281H2.85875V13.1406Z" fill="#C2C4C8" fill-opacity="0.88"/>
<path d="M2.85875 5.13867H1.71875V7.42617H2.85875V5.13867Z" fill="#C2C4C8" fill-opacity="0.88"/>
<path d="M1.71781 7.42578H0.570312V13.1408H1.71781V7.42578Z" fill="#C2C4C8" fill-opacity="0.88"/>
</g>
<defs>
<clipPath id="clip0_696_14614">
<rect width="24" height="24" fill="white"/>
</clipPath>
</defs>
</svg>
