<svg width="24" height="24" viewBox="0 0 24 24" fill="none" xmlns="http://www.w3.org/2000/svg">
<g clip-path="url(#clip0_696_15123)">
<path d="M1.71781 6.85461H22.2828V22.8596H23.4303V3.42711H22.2828V2.28711H18.8553V4.57461H17.7153V2.28711H6.28531V4.57461H5.14531V2.28711H1.71781V3.42711H0.570312V22.8596H1.71781V6.85461Z" fill="#C2C4C8" fill-opacity="0.88"/>
<path d="M22.2837 22.8594H1.71875V23.9994H22.2837V22.8594Z" fill="#C2C4C8" fill-opacity="0.88"/>
<path d="M18.8548 0H17.7148V2.2875H18.8548V0Z" fill="#C2C4C8" fill-opacity="0.88"/>
<path d="M13.1406 11.4297V15.9972H16.5681V18.2847H13.1406V19.4247H17.7156V14.8572H14.2881V12.5697H17.7156V11.4297H13.1406Z" fill="#C2C4C8" fill-opacity="0.88"/>
<path d="M9.71266 11.4297H8.57266V12.5697H6.28516V13.7172H8.57266V18.2847H6.28516V19.4247H12.0002V18.2847H9.71266V11.4297Z" fill="#C2C4C8" fill-opacity="0.88"/>
<path d="M6.28453 0H5.14453V2.2875H6.28453V0Z" fill="#C2C4C8" fill-opacity="0.88"/>
</g>
<defs>
<clipPath id="clip0_696_15123">
<rect width="24" height="24" fill="white"/>
</clipPath>
</defs>
</svg>
