<svg width="20" height="20" viewBox="0 0 20 20" fill="none" xmlns="http://www.w3.org/2000/svg">
<g clip-path="url(#clip0_793_6783)">
<g clip-path="url(#clip1_793_6783)">
<path d="M19.5203 5.23755H18.5703V12.8563H19.5203V5.23755Z" fill="#F7F7F8"/>
<path d="M18.573 12.8564H17.623V13.8064H18.573V12.8564Z" fill="#F7F7F8"/>
<path d="M18.573 4.28711H17.623V5.23711H18.573V4.28711Z" fill="#F7F7F8"/>
<path d="M17.6223 13.8069H16.666V14.7631H17.6223V13.8069Z" fill="#F7F7F8"/>
<path d="M17.6223 3.33167H16.666V4.28791H17.6223V3.33167Z" fill="#F7F7F8"/>
<path d="M16.6668 14.7623H15.7168V15.7123H16.6668V14.7623Z" fill="#F7F7F8"/>
<path d="M16.6668 2.3811H15.7168V3.3311H16.6668V2.3811Z" fill="#F7F7F8"/>
<path d="M15.716 15.7129H14.7598V16.6629H15.716V15.7129Z" fill="#F7F7F8"/>
<path d="M15.7148 8.09399H13.8086V10.0002H15.7148V8.09399Z" fill="#F7F7F8"/>
<path d="M15.7148 1.42578H13.8086V2.38203H15.7148V1.42578Z" fill="#F7F7F8"/>
<path d="M14.7613 16.6633H12.8613V17.6196H14.7613V16.6633Z" fill="#F7F7F8"/>
<path d="M12.8594 17.6188H10.9531V18.5688H12.8594V17.6188Z" fill="#F7F7F8"/>
<path d="M4.28672 18.5688V17.6188H3.33672V18.5688H2.38672V19.525H10.9555V18.5688H4.28672Z" fill="#F7F7F8"/>
<path d="M10.9531 8.09399H9.04688V10.0002H10.9531V8.09399Z" fill="#F7F7F8"/>
<path d="M13.8113 0.47522H7.14258V1.42522H13.8113V0.47522Z" fill="#F7F7F8"/>
<path d="M7.14023 1.42578H5.24023V2.38203H7.14023V1.42578Z" fill="#F7F7F8"/>
<path d="M5.23945 16.6629H6.18945V15.7129H4.2832V17.6191H5.23945V16.6629Z" fill="#F7F7F8"/>
<path d="M6.18945 8.09399H4.2832V10.0002H6.18945V8.09399Z" fill="#F7F7F8"/>
<path d="M5.24023 2.3811H3.33398V3.3311H5.24023V2.3811Z" fill="#F7F7F8"/>
<path d="M4.28398 14.7623H3.33398V15.7123H4.28398V14.7623Z" fill="#F7F7F8"/>
<path d="M3.33672 13.8069H2.38672V14.7631H3.33672V13.8069Z" fill="#F7F7F8"/>
<path d="M3.33672 3.33167H2.38672V4.28791H3.33672V3.33167Z" fill="#F7F7F8"/>
<path d="M2.38594 12.8564H1.42969V13.8064H2.38594V12.8564Z" fill="#F7F7F8"/>
<path d="M2.38594 4.28711H1.42969V5.23711H2.38594V4.28711Z" fill="#F7F7F8"/>
<path d="M1.42852 5.23767H0.478516V12.8564H1.42852V5.23767Z" fill="#F7F7F8"/>
</g>
</g>
<defs>
<clipPath id="clip0_793_6783">
<rect width="20" height="20" fill="white"/>
</clipPath>
<clipPath id="clip1_793_6783">
<rect width="20" height="20" fill="white"/>
</clipPath>
</defs>
</svg>
