<svg width="24" height="24" viewBox="0 0 24 24" fill="none" xmlns="http://www.w3.org/2000/svg">
<path d="M22.8588 11.4336H21.7188V12.5736H22.8588V11.4336Z" fill="#C2C4C8" fill-opacity="0.88"/>
<path d="M21.7178 12.5742H20.5703V13.7142H21.7178V12.5742Z" fill="#C2C4C8" fill-opacity="0.88"/>
<path d="M21.7178 10.2871H20.5703V11.4346H21.7178V10.2871Z" fill="#C2C4C8" fill-opacity="0.88"/>
<path d="M20.5697 13.7148H19.4297V14.8623H20.5697V13.7148Z" fill="#C2C4C8" fill-opacity="0.88"/>
<path d="M20.5697 9.14648H19.4297V10.2865H20.5697V9.14648Z" fill="#C2C4C8" fill-opacity="0.88"/>
<path d="M18.2905 18.2888H14.8555V19.4288H19.4305V14.8613H18.2905V18.2888Z" fill="#C2C4C8" fill-opacity="0.88"/>
<path d="M11.4269 12.575H10.2869V11.435H9.13937V10.2875H7.99937V11.435H6.85938V12.575H7.99937V13.715H9.13937V14.8625H10.2869V16.0025H11.4269V14.8625H12.5744V13.715H13.7144V12.575H14.8544V11.435H16.0019V10.2875H17.1419V9.1475H16.0019V8H14.8544V9.1475H13.7144V10.2875H12.5744V11.435H11.4269V12.575Z" fill="#C2C4C8" fill-opacity="0.88"/>
<path d="M18.2905 5.71977V9.14727H19.4305V4.57227H14.8555V5.71977H18.2905Z" fill="#C2C4C8" fill-opacity="0.88"/>
<path d="M14.8548 19.4297H13.7148V20.5772H14.8548V19.4297Z" fill="#C2C4C8" fill-opacity="0.88"/>
<path d="M14.8548 3.43164H13.7148V4.57164H14.8548V3.43164Z" fill="#C2C4C8" fill-opacity="0.88"/>
<path d="M13.7142 20.5762H12.5742V21.7162H13.7142V20.5762Z" fill="#C2C4C8" fill-opacity="0.88"/>
<path d="M13.7142 2.29297H12.5742V3.43297H13.7142V2.29297Z" fill="#C2C4C8" fill-opacity="0.88"/>
<path d="M12.5733 21.7168H11.4258V22.8568H12.5733V21.7168Z" fill="#C2C4C8" fill-opacity="0.88"/>
<path d="M12.5733 1.14453H11.4258V2.29203H12.5733V1.14453Z" fill="#C2C4C8" fill-opacity="0.88"/>
<path d="M11.4252 20.5762H10.2852V21.7162H11.4252V20.5762Z" fill="#C2C4C8" fill-opacity="0.88"/>
<path d="M11.4252 2.29297H10.2852V3.43297H11.4252V2.29297Z" fill="#C2C4C8" fill-opacity="0.88"/>
<path d="M10.2881 19.4297H9.14062V20.5772H10.2881V19.4297Z" fill="#C2C4C8" fill-opacity="0.88"/>
<path d="M10.2881 3.43164H9.14062V4.57164H10.2881V3.43164Z" fill="#C2C4C8" fill-opacity="0.88"/>
<path d="M5.71031 18.2888V14.8613H4.57031V19.4288H9.13781V18.2888H5.71031Z" fill="#C2C4C8" fill-opacity="0.88"/>
<path d="M5.71031 5.71977H9.13781V4.57227H4.57031V9.14727H5.71031V5.71977Z" fill="#C2C4C8" fill-opacity="0.88"/>
<path d="M4.57359 13.7148H3.43359V14.8623H4.57359V13.7148Z" fill="#C2C4C8" fill-opacity="0.88"/>
<path d="M4.57359 9.14648H3.43359V10.2865H4.57359V9.14648Z" fill="#C2C4C8" fill-opacity="0.88"/>
<path d="M3.43266 12.5742H2.28516V13.7142H3.43266V12.5742Z" fill="#C2C4C8" fill-opacity="0.88"/>
<path d="M3.43266 10.2871H2.28516V11.4346H3.43266V10.2871Z" fill="#C2C4C8" fill-opacity="0.88"/>
<path d="M2.28453 11.4336H1.14453V12.5736H2.28453V11.4336Z" fill="#C2C4C8" fill-opacity="0.88"/>
</svg>
