<svg width="22" height="22" viewBox="0 0 22 22" fill="none" xmlns="http://www.w3.org/2000/svg">
<path d="M10.3857 1.04456C10.7469 0.763692 11.2531 0.763692 11.6143 1.04456L19.8643 7.46057C20.1077 7.65003 20.25 7.94209 20.25 8.25061V18.3336C20.2499 19.085 19.9512 19.8062 19.4199 20.3375C18.955 20.8023 18.3448 21.0887 17.6963 21.153L17.417 21.1666H4.58301C3.83191 21.1665 3.11131 20.8685 2.58008 20.3375C2.0488 19.8062 1.75008 19.085 1.75 18.3336V8.25061C1.75 7.94209 1.89226 7.65003 2.13574 7.46057L10.3857 1.04456ZM3.75 8.73889V18.3336C3.75008 18.5544 3.83804 18.7663 3.99414 18.9225C4.15033 19.0786 4.36219 19.1665 4.58301 19.1666H7.25V11.0006C7.25 10.4483 7.69772 10.0006 8.25 10.0006H13.75C14.3023 10.0006 14.75 10.4483 14.75 11.0006V19.1666H17.417L17.499 19.1627C17.6897 19.1438 17.8691 19.0591 18.0059 18.9225C18.162 18.7663 18.2499 18.5544 18.25 18.3336V8.73889L11 3.10022L3.75 8.73889ZM9.25 19.1666H12.75V12.0006H9.25V19.1666Z" fill="#5A5C63"/>
</svg>
