<svg width="22" height="22" viewBox="0 0 22 22" fill="none" xmlns="http://www.w3.org/2000/svg">
<path d="M11 1.8335L2.75 8.25016V18.3335C2.75 18.8197 2.94315 19.286 3.28697 19.6299C3.63079 19.9737 4.0971 20.1668 4.58333 20.1668H8.25V11.0002H13.75V20.1668H17.4167C17.9029 20.1668 18.3692 19.9737 18.713 19.6299C19.0568 19.286 19.25 18.8197 19.25 18.3335V8.25016L11 1.8335Z" fill="#5A5C63"/>
<path d="M17.4167 20.1668C17.9029 20.1668 18.3692 19.9737 18.713 19.6299C19.0568 19.286 19.25 18.8197 19.25 18.3335V8.25016L11 1.8335L2.75 8.25016V18.3335C2.75 18.8197 2.94315 19.286 3.28697 19.6299C3.63079 19.9737 4.0971 20.1668 4.58333 20.1668M17.4167 20.1668H4.58333M17.4167 20.1668H13.75V11.0002H8.25V20.1668H4.58333" stroke="#5A5C63" stroke-width="2" stroke-linecap="round" stroke-linejoin="round"/>
</svg>
