<svg width="22" height="22" viewBox="0 0 22 22" fill="none" xmlns="http://www.w3.org/2000/svg">
<path d="M20.4141 4.41223C20.5998 4.22646 20.7472 4.00592 20.8477 3.7632C20.9483 3.52048 21 3.26034 21 2.99762C21 2.73491 20.9483 2.47476 20.8477 2.23204C20.7472 1.98933 20.5998 1.76879 20.4141 1.58302C20.2283 1.39725 20.0078 1.24989 19.765 1.14935C19.5223 1.04882 19.2622 0.99707 18.9995 0.99707C18.7367 0.99707 18.4766 1.04882 18.2339 1.14935C17.9912 1.24989 17.7706 1.39725 17.5849 1.58302L7.56793 11.5999L10.3971 14.4291L20.4141 4.41223Z" stroke="#5A5C63" stroke-width="1.8" stroke-linecap="round" stroke-linejoin="round"/>
<path d="M7.56791 11.6001L6.32936 15.6679L10.3971 14.4294M16.5846 2.5835L19.4138 5.4127M3.66197 17.0016H2.99779C2.46722 17.0016 1.95837 17.2124 1.5832 17.5875C1.20802 17.9627 0.997253 18.4716 0.997253 19.0021C0.997253 19.5327 1.20802 20.0416 1.5832 20.4167C1.95837 20.7919 2.46722 21.0027 2.99779 21.0027H17.0016" stroke="#5A5C63" stroke-width="1.8" stroke-linecap="round" stroke-linejoin="round"/>
<path d="M3.99994 2.76465C4.39708 3.68559 5.01902 4.46149 5.81927 4.94141L5.8222 4.94336L6.01068 5.05469L5.79193 5.18555L5.789 5.1875C5.00943 5.65341 4.3983 6.40088 3.99994 7.29004C3.60132 6.40122 2.9905 5.65396 2.21088 5.18848L2.2099 5.1875L1.98724 5.05469L2.1767 4.94336L2.17963 4.94141C2.98048 4.4618 3.60244 3.68585 3.99994 2.76465Z" stroke="#5A5C63" stroke-width="1.6"/>
</svg>
